<?xml version="1.0" encoding="UTF-8" standalone="no"?>
<!-- Created with Inkscape (http://www.inkscape.org/) -->

<svg
   width="500mm"
   height="500mm"
   viewBox="0 0 500 500"
   version="1.1"
   id="svg5"
   inkscape:version="1.1.2 (b8e25be833, 2022-02-05)"
   sodipodi:docname="upv-logo.svg"
   xmlns:inkscape="http://www.inkscape.org/namespaces/inkscape"
   xmlns:sodipodi="http://sodipodi.sourceforge.net/DTD/sodipodi-0.dtd"
   xmlns="http://www.w3.org/2000/svg"
   xmlns:svg="http://www.w3.org/2000/svg">
  <sodipodi:namedview
     id="namedview7"
     pagecolor="#505050"
     bordercolor="#eeeeee"
     borderopacity="1"
     inkscape:pageshadow="0"
     inkscape:pageopacity="0"
     inkscape:pagecheckerboard="0"
     inkscape:document-units="mm"
     showgrid="false"
     inkscape:zoom="0.18741319"
     inkscape:cx="394.84947"
     inkscape:cy="1195.22"
     inkscape:window-width="1366"
     inkscape:window-height="715"
     inkscape:window-x="-8"
     inkscape:window-y="-8"
     inkscape:window-maximized="1"
     inkscape:current-layer="layer1"
     showguides="false"
     inkscape:snap-global="false"
     width="500mm" />
  <defs
     id="defs2" />
  <g
     inkscape:label="Capa 1"
     inkscape:groupmode="layer"
     id="layer1">
    <path
       style="fill:#ffffff;stroke-width:0.237503"
       d="m 240.30794,499.94506 c -12.48833,-0.63149 -20.47054,-1.4502 -31.15358,-3.19545 C 136.93296,484.95127 72.958964,441.25215 35.024472,377.80563 17.578193,348.62616 6.296371,316.07747 1.9131708,282.27745 0.3718669,270.39201 0,264.11429 0,249.97951 0,235.828 0.3684172,229.61941 1.9211936,217.6035 10.583154,150.57422 46.419468,89.719152 101.187,49.036433 135.4988,23.54876 175.80915,7.2775919 217.95346,1.9040005 229.62008,0.4164529 236.6014,8.7369883e-4 249.9394,2.8988253e-6 261.07902,-7.3120117e-4 264.47523,0.1374908 273.36404,0.9527712 329.95489,6.1437871 383.574,31.007278 424.47129,71.022103 c 40.62796,39.751257 66.0658,90.406787 73.4902,146.344237 1.41107,10.63121 2.03851,20.66987 2.03851,32.61317 0,9.30001 -0.21626,14.39204 -0.96711,22.76991 -4.12365,46.00819 -21.09251,90.01642 -49.06579,127.25035 -7.32476,9.74971 -14.16909,17.5754 -23.55528,26.93268 -9.31569,9.28694 -17.10764,16.06606 -26.88774,23.39265 -24.01096,17.9874 -51.20652,31.56486 -79.90533,39.89297 -17.47201,5.07019 -33.89962,7.94204 -53.86475,9.41642 -3.29475,0.24321 -22.21052,0.4742 -25.44606,0.31057 z m 27.22964,-8.25694 c 42.50793,-3.25687 81.48692,-16.64335 116.64751,-40.05995 49.08128,-32.68768 84.80862,-82.47199 99.98133,-139.31931 4.15705,-15.57519 6.67507,-31.35103 7.77175,-48.69109 0.35765,-5.65458 0.35765,-21.62193 0,-27.27651 C 489.7734,202.1125 481.64283,171.59825 466.78501,141.94096 461.44209,131.27603 456.30689,122.537 449.85137,113.12356 414.81325,62.030713 360.96495,25.842579 300.95041,13.056325 284.5899,9.5706795 270.62214,8.0140715 253.50659,7.7690275 231.26364,7.4505675 211.44889,9.7404695 190.48601,15.052026 151.72766,24.872598 116.51304,43.905287 86.328549,71.346713 82.114554,75.17775 74.445487,82.904933 70.298436,87.49831 34.774295,126.84568 13.221248,175.99745 8.5669989,228.27691 c -1.2219121,13.72539 -1.2219121,29.67982 0,43.40521 3.4205951,38.42233 16.1355991,75.6898 36.9417781,108.27572 14.270894,22.35061 32.008685,42.16367 52.586652,58.7392 32.673441,26.31835 71.167901,43.5888 112.248011,50.35984 9.53519,1.57163 18.38516,2.50218 28.2998,2.97547 2.94297,0.14092 5.50066,0.27719 5.68377,0.30378 1.15973,0.16794 19.09276,-0.33251 23.21057,-0.64801 z m -15.50318,-8.34906 c -0.21962,-0.57054 0.16028,-1.03084 1.83682,-2.22521 1.96126,-1.39727 2.60816,-2.56752 2.60783,-4.71761 0,-1.9237 -1.79714,-22.54598 -2.15444,-24.72561 -0.3366,-2.05361 -1.38606,-4.24617 -2.39849,-5.01131 -0.43872,-0.33157 -1.43976,-0.78525 -2.22452,-1.00826 -1.70255,-0.48386 -2.0214,-0.70775 -2.0214,-1.4193 0,-0.6903 0.38856,-0.82647 2.35882,-0.82647 0.88359,0 2.66738,-0.1598 3.96395,-0.35436 4.07258,-0.61224 3.76902,-0.70881 6.56845,2.09005 2.05979,2.05945 11.11292,10.84861 21.307,20.68589 2.61065,2.51926 3.2346,2.95637 3.64141,2.55067 0.26778,-0.26711 -1.23394,-19.2378 -1.70807,-21.57785 -0.42413,-2.09305 -1.48658,-2.97504 -4.51666,-3.74945 -1.5716,-0.40165 -2.60171,-0.91389 -2.60171,-1.29378 0,-0.69473 0.76592,-0.88868 4.08138,-1.03355 1.87537,-0.0821 4.67001,-0.32278 6.21035,-0.53515 1.54037,-0.21243 2.95833,-0.32585 3.15103,-0.25205 0.6769,0.25901 0.33817,0.87428 -0.92508,1.68024 -1.73391,1.10621 -2.46469,2.03297 -2.67445,3.3915 -0.11573,0.74865 0.32014,6.84354 1.3013,18.20296 0.81121,9.39261 1.47153,17.21085 1.46728,17.37391 -0.002,0.16387 -0.30053,0.29599 -0.66165,0.29537 -0.66405,0 -0.63617,0.0247 -26.0233,-24.22799 -2.57366,-2.45881 -4.83634,-4.47047 -5.02808,-4.47047 -0.19163,0 -0.39759,0.13325 -0.45742,0.29643 -0.1445,0.39323 1.60256,20.26007 1.95525,22.23631 0.67201,3.76527 2.38238,5.66149 5.47573,6.07072 1.53259,0.20287 2.39879,0.88793 1.83427,1.4509 -0.26787,0.26716 -1.34993,0.41032 -4.36556,0.57726 -2.20513,0.12183 -5.03877,0.37779 -6.29697,0.56812 -2.93653,0.44425 -3.51852,0.43768 -3.70307,-0.0416 z m -16.60164,-0.72212 c -9.47501,-0.85985 -12.37528,-1.08464 -16.26346,-1.26065 -2.53585,-0.11488 -4.71358,-0.31134 -4.83936,-0.43683 -0.5213,-0.51985 0.0796,-1.21806 1.37046,-1.59236 1.45009,-0.42041 2.325,-1.27432 2.72928,-2.66374 0.44376,-1.525 2.36483,-29.84495 2.09149,-30.8323 -0.31644,-1.14299 -1.34661,-2.05655 -2.9953,-2.65624 -1.81348,-0.65964 -2.3769,-0.95964 -2.525,-1.34458 -0.16979,-0.44162 0.0615,-0.96891 0.49833,-1.13615 0.19943,-0.0761 2.57233,0.0691 5.27297,0.32381 6.36781,0.59998 10.57665,0.89813 17.15423,1.21542 2.97659,0.14356 5.48072,0.36826 5.64809,0.50682 0.37802,0.3129 0.41817,6.75617 0.05,8.07721 -0.19761,0.71026 -0.36195,0.8895 -0.81501,0.8895 -0.63185,0 -0.72368,-0.20287 -0.96711,-2.13471 -0.44773,-3.553 -2.41565,-4.75827 -8.50632,-5.20986 -4.64422,-0.34433 -5.68796,0.0389 -5.97888,2.19598 -0.074,0.54879 -0.29657,3.32138 -0.49452,6.1613 -0.37143,5.32841 -0.32404,5.87935 0.53416,6.20783 0.96034,0.36752 5.58615,0.61211 6.5716,0.34745 1.1506,-0.30894 2.78033,-1.86338 3.78688,-3.61172 0.45389,-0.78838 0.78608,-1.11803 1.0702,-1.06199 0.38083,0.0754 0.4071,0.58057 0.34744,6.68291 -0.0393,4.01396 -0.16197,6.78341 -0.31336,7.06533 -0.15214,0.28335 -0.44231,0.43504 -0.74622,0.39 -0.40691,-0.0601 -0.59232,-0.43242 -1.01962,-2.04641 -0.85778,-3.24058 -1.71075,-3.97269 -5.03504,-4.32152 -2.53948,-0.26651 -4.84896,-0.28504 -5.23211,-0.0421 -0.15548,0.0983 -0.38358,0.44453 -0.50726,0.76894 -0.37658,0.98786 -1.11452,13.33313 -0.85164,14.24732 0.44633,1.55215 2.18494,2.18637 5.85124,2.13434 4.44777,-0.0634 8.12722,-1.42345 10.11227,-3.73866 2.37319,-2.76788 2.60775,-2.99833 2.88101,-2.82987 0.7777,0.47938 -0.12386,4.20897 -1.51198,6.25571 -1.74539,2.57339 -4.22604,3.73489 -7.36778,3.44976 z m -39.95268,-4.79375 c -1.96195,-0.51317 -5.30244,-1.41546 -7.42329,-2.00505 -2.12085,-0.58966 -5.27258,-1.35691 -7.0038,-1.70505 -3.81095,-0.76641 -4.24126,-0.91852 -4.24126,-1.4989 0,-0.64571 0.43345,-0.90445 1.7513,-1.04515 1.44685,-0.15455 2.26304,-0.73437 2.93551,-2.08554 0.64396,-1.29376 7.4728,-28.4207 7.49803,-29.78513 0.0273,-1.47413 -0.70331,-2.43396 -2.78343,-3.65684 -1.71168,-1.00624 -2.23965,-1.59219 -1.9116,-2.12159 0.28714,-0.46338 1.85216,-0.22847 5.50037,0.82534 2.027,0.58555 5.18433,1.37535 7.01628,1.75511 1.83195,0.37977 3.39007,0.7496 3.46251,0.82176 0.0724,0.0722 0.067,0.38822 -0.0125,0.70214 -0.12617,0.50124 -0.31299,0.58602 -1.53585,0.6966 -1.65276,0.14928 -2.29459,0.50156 -2.78205,1.52612 -0.57233,1.2029 -7.5228,29.48078 -7.55124,30.72197 -0.0425,1.85098 0.92815,2.57021 4.44496,3.29414 3.85939,0.7944 7.67534,0.51216 10.15868,-0.75138 0.53285,-0.27114 1.65798,-1.13243 2.50036,-1.91402 1.7448,-1.61889 2.38,-1.73937 2.27993,-0.43236 -0.173,2.25902 -2.78133,5.69089 -5.14594,6.77057 -2.10302,0.96027 -3.11619,0.94429 -7.15751,-0.11269 z m 116.82703,-2.90395 c -4.21911,-0.43634 -8.09528,-2.71496 -11.15852,-6.5596 -6.86813,-8.62005 -6.74108,-22.42651 0.2713,-29.48299 2.11471,-2.12797 4.28062,-3.45813 7.37835,-4.53136 l 2.2592,-0.78272 4.16174,0.0654 c 2.28897,0.0362 4.85738,0.0893 5.70753,0.11817 l 1.54581,0.0529 0.33918,-1.12662 c 0.61197,-2.03263 0.89493,-1.65402 3.43237,4.59233 1.27776,3.14544 2.26615,5.8672 2.19651,6.04826 -0.28429,0.7388 -1.16873,0.28149 -3.06848,-1.5866 -3.97226,-3.90617 -8.11662,-5.91127 -12.21813,-5.91127 -5.68908,0 -10.03271,3.57541 -11.37935,9.3669 -0.47225,2.03082 -0.48778,5.89566 -0.0327,8.0702 1.13804,5.43482 5.08828,11.56354 9.28534,14.4062 3.37132,2.28339 7.48534,2.91462 11.25431,1.72692 3.97324,-1.25206 6.43438,-3.56146 9.10868,-8.54701 1.25139,-2.33289 1.37357,-2.49046 1.93158,-2.49046 0.37766,0 0.44655,0.18398 0.44655,1.19339 0,2.86242 -1.89989,6.4492 -5.08895,9.60738 -1.71804,1.70141 -2.60576,2.36959 -4.30467,3.24019 -4.18547,2.14483 -8.02026,2.94891 -12.06793,2.53023 z m -147.7232,-5.88542 c -1.82037,-1.02876 -4.95545,-2.64607 -6.96685,-3.59405 -3.12139,-1.47105 -3.64677,-1.79536 -3.58681,-2.21359 0.0622,-0.43372 0.28231,-0.50514 1.9116,-0.62044 3.45242,-0.24424 4.25324,-1.61972 4.61435,-7.92557 0.10342,-1.80384 0.0648,-2.80347 -0.12122,-3.15023 -0.34461,-0.64224 -10.65264,-5.98996 -11.54595,-5.98996 -1.04091,0 -2.03914,0.66028 -4.26369,2.82035 -2.31095,2.24386 -3.00995,3.33709 -3.00995,4.70744 0,1.06622 0.31418,1.5744 2.20461,3.56592 1.17058,1.23311 1.36223,1.54759 1.12043,1.83821 -0.16048,0.19259 -0.40251,0.3505 -0.53792,0.3505 -0.13553,0 -1.54075,-0.73751 -3.12294,-1.63905 -1.58219,-0.90148 -4.22568,-2.27497 -5.87442,-3.05214 -1.64874,-0.77724 -3.05918,-1.51232 -3.13431,-1.63363 -0.29448,-0.47513 0.26712,-0.77248 1.74081,-0.92154 0.84671,-0.0852 1.96754,-0.34411 2.49073,-0.57443 0.52319,-0.23014 7.9053,-6.25276 16.40471,-13.38323 8.4994,-7.1305 15.61598,-12.93377 15.81461,-12.89631 0.19864,0.0373 0.39202,0.33409 0.42981,0.65909 0.038,0.32499 -0.57758,9.18636 -1.36744,19.69187 -0.78985,10.50549 -1.43608,19.651 -1.43608,20.3233 0,1.70245 0.31642,2.40874 1.57991,3.52651 0.97877,0.86582 1.06574,1.02322 0.81933,1.48238 -0.1515,0.28258 -0.40567,0.51037 -0.56456,0.50637 -0.15891,-10e-4 -1.77829,-0.84906 -3.5987,-1.87777 z m -3.21356,-21.75824 c 0.25863,-0.67846 1.15916,-13.03601 0.98636,-13.53564 -0.0564,-0.16316 -0.24366,-0.29649 -0.41617,-0.29649 -0.46068,0 -10.28312,8.46994 -10.45733,9.01744 -0.0813,0.2562 -0.0792,0.57723 0.005,0.71348 0.18315,0.29554 8.89938,4.70666 9.33619,4.72485 0.16665,0.007 0.41229,-0.27366 0.54569,-0.62364 z m 184.99872,15.69318 c -0.24851,-0.29859 -0.16245,-0.57235 0.50261,-1.60099 0.69967,-1.08212 0.80271,-1.43793 0.80567,-2.78252 l 0.002,-1.54172 -6.8874,-12.91623 c -3.78806,-7.10392 -7.19556,-13.26634 -7.57235,-13.69422 -1.01974,-1.15841 -2.19129,-1.39377 -4.58154,-0.9203 -2.15993,0.42783 -2.78002,0.32847 -2.67179,-0.42816 0.0558,-0.38921 0.88681,-0.90724 3.66167,-2.2824 1.97424,-0.97836 4.81015,-2.49126 6.30203,-3.362 3.85,-2.247 4.46888,-2.51892 4.74432,-2.08461 0.36973,0.58309 0.26496,0.86794 -0.74927,2.03669 -0.93385,1.0761 -0.97249,1.18338 -0.88088,2.4456 0.0966,1.33069 0.64039,2.43096 7.80302,15.78851 0.48963,0.91318 2.04697,3.84835 3.46075,6.52265 2.85842,5.40714 3.36232,6.17356 4.53377,6.89565 0.92344,0.56919 2.67719,0.55941 4.68167,-0.026 0.9709,-0.28353 1.17293,-0.28448 1.34544,-0.007 0.11146,0.18039 0.14785,0.47084 0.0803,0.64594 -0.067,0.17512 -2.16807,1.34693 -4.66818,2.60416 -2.50007,1.25719 -5.60199,2.91139 -6.89311,3.67605 -1.29111,0.76462 -2.43148,1.39023 -2.53406,1.39023 -0.10244,0 -0.32144,-0.16222 -0.48631,-0.36023 z m 21.21748,-10.84796 c -0.17632,-0.21196 -0.0814,-0.77091 0.32759,-1.93836 0.31639,-0.90239 0.57527,-1.9432 0.57527,-2.31287 0,-0.36965 -2.35882,-9.49531 -5.24173,-20.27925 -2.88294,-10.78388 -5.18712,-19.74892 -5.12047,-19.92227 0.27353,-0.71085 -1.02948,-1.4008 26.29571,13.92286 11.80803,6.62179 11.11179,6.33219 13.17251,5.48031 1.47071,-0.60802 1.94754,-0.63377 2.14673,-0.11584 0.21459,0.55756 -0.28134,1.02 -3.9018,3.63817 -1.76708,1.27795 -4.28301,3.25103 -5.59102,4.38474 -2.87162,2.48893 -3.06247,2.60549 -3.46829,2.1178 -0.2518,-0.30263 -0.2514,-0.50639 0.001,-1.12163 0.93759,-2.2731 1.04093,-2.77865 0.75943,-3.71568 -0.17128,-0.5711 -0.66541,-1.25977 -1.30745,-1.82323 -1.55257,-1.36253 -6.24477,-3.96513 -7.14865,-3.96513 -0.61469,0 -1.64885,0.69685 -5.53438,3.72922 -2.62815,2.05109 -4.84247,3.89565 -4.92071,4.09899 -0.33132,0.86112 -0.0903,2.61055 0.66434,4.82879 1.47461,4.33267 2.46113,5.40014 4.7663,5.15734 0.66262,-0.0695 1.72194,-0.34953 2.35411,-0.62168 1.56739,-0.67467 2.29896,-0.65718 2.29896,0.0552 0,0.42965 -0.55141,0.93512 -2.52266,2.31253 -2.84694,1.98934 -3.53632,2.52523 -6.15792,4.7869 -1.02069,0.88057 -1.9334,1.60098 -2.02825,1.60098 -0.0948,0 -0.28381,-0.13397 -0.42002,-0.29759 z m 4.07553,-24.16656 c 2.20153,-1.71453 4.06493,-3.279 4.14096,-3.47657 0.0819,-0.21317 -0.10231,-0.5658 -0.45464,-0.86788 -0.68172,-0.58483 -11.43768,-6.53222 -11.81359,-6.53222 -0.13732,0 -0.30663,0.0923 -0.37677,0.20598 -0.14522,0.2342 3.21217,12.46688 3.64099,13.26598 0.15405,0.2872 0.41073,0.52223 0.57028,0.52223 0.15933,0 2.09127,-1.40278 4.29277,-3.11737 z m -254.4933,13.98121 c -0.15734,-0.15695 -0.28608,-0.67875 -0.28608,-1.15957 0,-0.48087 2.35911,-9.13166 5.24245,-19.22398 2.88337,-10.09237 5.29895,-18.88339 5.36794,-19.53569 0.1274,-1.20412 0.0286,-1.49309 -1.23592,-3.60895 -0.42777,-0.71586 -0.43109,-0.78735 -0.0543,-1.16324 0.51189,-0.51051 0.63918,-0.43047 4.25463,2.67619 1.49345,1.28327 3.46446,2.85702 4.38003,3.49723 4.08486,2.85635 4.30608,3.08664 3.55893,3.70512 -0.29592,0.24501 -0.61353,0.24279 -1.67808,-0.0142 -0.88021,-0.21052 -1.51953,-0.24177 -1.93924,-0.0945 -0.8046,0.2822 -1.97613,2.21828 -2.93083,4.84349 -1.0219,2.81002 -7.11785,22.75019 -7.11785,23.28287 0,0.23977 0.14235,0.43583 0.31651,0.43583 0.47418,0 19.0818,-10.32535 20.73,-11.503 2.57378,-1.83912 3.68382,-3.38529 3.68522,-5.13328 7.3e-4,-0.93213 -0.16277,-1.32237 -1.06927,-2.55042 -1.10799,-1.50113 -1.33282,-2.31164 -0.70755,-2.55097 0.45615,-0.1744 1.66687,0.62883 3.79912,2.52093 0.91557,0.81246 2.5853,2.10737 3.71049,2.87753 2.54952,1.74518 3.01796,2.23101 2.67491,2.77418 -0.19146,0.30304 -0.64221,0.41201 -1.8435,0.44552 -2.18339,0.0607 -2.7295,0.27553 -7.75239,3.04666 -13.86192,7.64777 -30.01735,16.46164 -30.38896,16.57929 -0.23665,0.0749 -0.55899,0.01 -0.71635,-0.1488 z m 107.08168,-3.67625 c -3.46383,-3.1911 -3.48034,-3.0339 0.33471,-3.18704 l 2.16701,-0.0869 1.89423,2.83492 c 1.04184,1.55925 1.87129,2.85211 1.84326,2.87311 -0.0281,0.0191 -0.76364,0.10817 -1.6347,0.1933 l -1.58369,0.15574 z m 13.91716,-8.64039 C 189.68297,426.37755 144.9815,403.93323 113.1846,366.86567 90.265756,340.14776 75.743214,307.34511 71.359481,272.39367 c -1.036496,-8.26405 -1.207148,-11.43254 -1.207148,-22.41416 0,-13.04238 0.562969,-20.03134 2.512374,-31.19008 9.1404,-52.32075 41.524523,-98.37816 87.887923,-124.996144 23.91632,-13.730731 50.24834,-21.63528 78.20954,-23.47756 4.59755,-0.302915 17.75692,-0.302915 22.35445,0 32.32409,2.129731 62.3374,12.308134 89.01719,30.188364 23.56942,15.79583 43.27542,37.2702 57.40772,62.55946 11.49151,20.56368 19.0921,44.79607 21.45883,68.41539 1.17664,11.74315 1.17664,25.25799 0,37.0011 -6.09694,60.84705 -43.71211,115.07522 -98.9323,142.62652 -21.70417,10.82895 -44.34421,16.9154 -68.95144,18.53673 -4.19425,0.27633 -18.68003,0.2609 -22.949,-0.0249 z m 26.87294,-6.24079 c 23.1316,-2.17777 43.83737,-8.13606 63.85294,-18.37427 32.8065,-16.78097 59.37693,-43.37604 76.20759,-76.27824 10.74852,-21.01217 17.01266,-43.99092 18.55588,-68.06855 0.31228,-4.8719 0.31261,-16.47578 0,-21.35489 -2.48419,-38.85745 -17.26512,-74.63125 -43.01976,-104.12093 -3.38901,-3.88054 -10.60695,-11.15989 -14.64481,-14.76946 -24.27563,-21.700554 -53.64439,-36.050162 -85.49395,-41.772406 -4.35247,-0.781988 -11.84233,-1.750049 -17.12258,-2.213061 -4.60217,-0.403561 -22.27446,-0.403342 -26.87293,2.32e-4 -15.00792,1.317476 -27.72212,3.896598 -41.14174,8.345768 -21.76644,7.216463 -41.01855,18.112737 -58.73997,33.245477 -4.33077,3.69816 -13.83067,13.07881 -17.44433,17.2253 -21.97136,25.21133 -36.087107,55.35628 -41.176313,87.93431 -2.298169,14.71157 -2.671281,30.77343 -1.057723,45.53397 3.899621,35.67296 18.473327,68.79562 42.243486,96.0097 3.56666,4.0834 13.11998,13.54429 17.07817,16.91294 11.91467,10.14007 23.15752,17.62732 36.41732,24.25229 19.57924,9.78237 42.48924,16.09524 63.8211,17.58589 2.02732,0.14138 4.1677,0.29683 4.75627,0.34476 2.77153,0.22607 20.12147,-0.0945 23.78135,-0.43891 z m -15.69659,-9.94907 c -0.9805,-0.68088 -4.77915,-3.30418 -8.44146,-5.82964 -17.79433,-12.27055 -26.13524,-18.91585 -38.23801,-30.46482 -6.43364,-6.13921 -11.77554,-12.02712 -15.90018,-17.5254 -13.06698,-17.41865 -19.62511,-36.41311 -21.71845,-62.90378 -0.75629,-9.57047 -0.83719,-16.09269 -0.83772,-67.53897 l -5.5e-4,-51.88457 2.4376,-9.5e-4 2.43759,-9.5e-4 -0.75997,-0.46216 c -2.04228,-1.24195 -2.46933,-4.3079 -0.82599,-5.93003 0.41537,-0.41 1.12775,-0.7329 2.06158,-0.93449 0.78477,-0.16962 5.38649,-1.19619 10.22599,-2.28168 10.413,-2.33558 15.7291,-3.39587 22.55183,-4.49795 14.16733,-2.28839 27.4769,-3.34663 44.39272,-3.52962 19.55751,-0.2115 35.91357,1.24908 56.95629,5.08652 10.24998,1.86921 27.83318,5.47782 28.37062,5.82249 1.07189,0.68741 1.51612,1.73108 1.39035,3.26651 -0.13132,1.60514 -0.63096,2.43449 -1.8348,3.04675 l -0.81541,0.41471 3.04503,4.5e-4 3.04504,4.7e-4 -0.0966,52.83333 c -0.0979,53.38539 -0.11792,54.67513 -1.00684,64.45551 -2.75337,30.29366 -12.58746,52.43992 -34.80953,78.39025 -7.37875,8.61669 -15.59829,16.09472 -26.09424,23.74003 -2.0757,1.51199 -5.80734,4.23007 -8.29245,6.04019 -5.27149,3.8396 -8.77019,6.50946 -12.24738,9.34572 -1.37341,1.12022 -2.65796,2.15906 -2.85468,2.30839 -0.28716,0.21795 -0.7089,0.0279 -2.1403,-0.96628 z m 3.77927,-9.35561 c 2.74325,-2.22785 6.00059,-4.64958 12.98745,-9.65551 9.15378,-6.55842 13.4942,-9.99339 19.05821,-15.08244 5.75502,-5.26377 12.35873,-12.7155 18.57611,-20.96154 15.74184,-20.87842 22.9626,-39.54566 25.13859,-64.98916 0.76972,-8.9999 0.83769,-13.96567 0.83993,-61.37208 l 0.001,-47.85244 h -79.31001 -79.31086 l 0.004,46.07351 c 0.004,52.94434 0.14592,60.07031 1.43792,71.92693 2.50312,22.9697 9.15298,40.02684 21.72004,55.71272 7.60194,9.48854 20.85516,22.01529 33.67822,31.83217 4.53999,3.47563 22.27891,16.0808 22.80179,16.20274 0.051,0.0142 1.12093,-0.81385 2.37809,-1.8349 z m -22.69058,-17.0674 -12.59808,-9.91074 -0.06,-95.04438 -0.0598,-95.0444 h 12.72332 12.72333 v 104.95514 c 0,57.72531 -0.0295,104.95515 -0.0654,104.95515 -0.0361,0 -5.73463,-4.45987 -12.66356,-9.91077 z m 28.90035,-48.61481 c 0,-31.16763 -0.071,-77.97953 -0.15814,-104.02656 l -0.15836,-47.35815 h 12.76246 12.76246 l -0.002,93.98528 -0.002,93.98523 -11.4564,9.13167 c -6.30102,5.02246 -11.97122,9.54108 -12.60054,10.04139 l -1.14422,0.90957 v -56.66843 z m -58.19306,22.14946 c -3.46994,-3.65612 -9.37423,-11.8114 -13.5032,-18.6512 -2.36806,-3.92283 -5.47189,-10.12864 -6.46527,-12.92669 l -0.67364,-1.89748 -0.0615,-70.02937 -0.0615,-70.02943 h 11.27094 11.27095 l 0.10147,87.69981 c 0.0559,48.23487 0.0826,87.72967 0.0597,87.76616 -0.0231,0.0366 -0.89526,-0.83286 -1.93829,-1.9318 z m 99.81046,-88.69765 v -84.83652 h 10.18804 10.18803 l 0.15696,5.37502 c 0.086,2.95625 0.15692,32.20519 0.15692,64.9976 v 59.62253 l -1.27426,3.49009 c -4.15401,11.3777 -10.40991,23.21589 -18.19238,34.42594 l -1.22312,1.76184 z M 329.488,177.03505 c -0.81996,-0.28861 -22.26676,-4.49938 -28.79602,-5.65363 -18.89372,-3.34015 -30.85563,-4.48322 -48.61225,-4.64521 -21.75962,-0.19857 -39.96727,1.4335 -59.09667,5.29739 -6.06568,1.2252 -21.62577,4.72458 -22.23558,5.00071 -0.28605,0.12942 31.37357,0.21435 79.42973,0.21268 46.45853,-0.001 79.65645,-0.0901 79.31079,-0.21196 z M 150.17659,378.03836 c -3.75798,-0.99563 -7.31722,-3.35323 -11.77648,-7.80055 -5.0255,-5.01213 -9.02472,-10.40612 -14.94395,-20.15593 l -2.73019,-4.49706 0.69433,-0.42111 c 0.8077,-0.48989 0.80444,-0.47639 0.33329,-1.38512 l -0.36102,-0.69626 4.22549,-2.76108 c 2.32403,-1.5186 4.35927,-2.81239 4.52276,-2.87512 0.45987,-0.17631 0.37878,-0.39722 -0.83236,-2.26585 -0.6213,-0.95853 -1.71432,-2.93642 -2.42895,-4.39528 -0.71466,-1.45884 -1.36993,-2.65245 -1.45618,-2.65245 -0.17101,0 -10.60971,6.29889 -11.10288,6.69971 -0.16665,0.13541 -0.33815,0.20456 -0.38113,0.15335 -1.17256,-1.39755 -5.90274,-9.18674 -8.31757,-13.69663 -9.556874,-17.84802 -15.180129,-36.59437 -17.441606,-58.14553 -0.599112,-5.70943 -0.600661,-23.53524 -0.0017,-29.41115 2.712782,-26.65002 11.045991,-50.69 24.814516,-71.58579 l 2.7056,-4.10617 0.74482,0.52892 c 0.79657,0.56575 0.79388,0.56684 1.51032,-0.61284 0.20467,-0.33708 1.56246,0.45531 9.75036,5.69025 5.2319,3.34507 9.8871,6.33038 10.34488,6.63407 0.4578,0.30374 3.41532,2.19895 6.5723,4.21161 7.68842,4.90161 7.11717,4.45128 6.55796,5.16942 -0.30298,0.38911 -0.97318,2.91359 -2.00223,7.542 -1.38366,6.22339 -1.50652,6.98173 -1.16495,7.19083 0.21003,0.12847 2.28002,1.21897 4.60007,2.42315 3.65279,1.896 4.17401,2.23565 3.88832,2.53389 -0.18145,0.18947 -2.1608,7.32738 -4.39852,15.86222 -2.23771,8.53481 -4.11304,15.5622 -4.16742,15.61645 -0.0544,0.0542 -4.20038,-1.65885 -9.21336,-3.80684 -7.78603,-3.33617 -9.13686,-3.84751 -9.26764,-3.50805 -0.30208,0.78396 -1.38919,7.55999 -1.79137,11.16561 -0.56219,5.04006 -0.55998,16.80898 0.004,22.29555 1.16067,11.28781 3.52154,22.20152 7.33709,33.91773 1.16551,3.57886 3.95873,11.40731 4.1387,11.59931 0.0494,0.0526 2.28922,-0.47147 4.97741,-1.16473 2.85609,-0.7365 4.96585,-1.1707 5.07576,-1.04445 0.10342,0.11842 0.70366,2.0304 1.3337,4.24813 3.05751,10.76202 7.20878,19.90428 13.19342,29.05535 1.83422,2.80471 3.33605,5.16153 3.33737,5.23732 0.001,0.0756 -0.23834,0.27322 -0.53264,0.4387 -0.49902,0.28061 -5.21221,5.47794 -5.35703,5.90724 -0.036,0.10683 1.30425,1.94988 2.97857,4.095 2.71795,3.48219 6.16053,8.60017 7.32282,10.88664 0.49672,0.97718 2.48733,6.37883 2.48733,6.74961 0,0.14067 -0.6118,0.62014 -1.35954,1.06619 -0.74774,0.4461 -2.91481,2.05222 -4.81572,3.56925 -5.20561,4.15432 -7.17865,5.34672 -10.55619,6.37972 -1.94426,0.59464 -5.06004,0.64806 -7.04991,0.12122 z m 5.77633,-3.29552 c 2.7051,-0.70276 5.19385,-2.22623 10.19883,-6.24312 1.35048,-1.08389 2.76013,-2.20459 3.13255,-2.49046 l 0.67712,-0.5198 -0.75501,-1.8975 c -1.31829,-3.31307 -3.9413,-7.3815 -8.33409,-12.92669 -4.90534,-6.19214 -8.61408,-11.52827 -11.95156,-17.19605 -0.92181,-1.56541 -1.70486,-2.88359 -1.74011,-2.9293 -0.0352,-0.0456 -4.53912,2.82781 -10.00858,6.38559 -5.46948,3.5578 -10.50631,6.82721 -11.193,7.2653 -0.68668,0.43813 -1.24853,0.92302 -1.24853,1.07753 0,0.79759 6.70682,11.21732 10.11489,15.71458 2.63766,3.4806 3.57093,4.55052 6.41347,7.35278 5.53205,5.45366 10.32293,7.54265 14.69402,6.40714 z m -9.88955,-6.34784 c -0.97725,-1.33715 -2.6454,-3.53626 -3.70696,-4.88694 -1.0616,-1.35077 -1.92977,-2.52481 -1.92928,-2.60908 0.001,-0.23708 2.76219,-2.40651 3.06244,-2.40651 0.37398,0 0.34284,0.10305 -0.32848,1.08992 -0.327,0.48053 -0.59452,1.12996 -0.59452,1.44307 0,0.84885 0.831,2.3144 2.00554,3.53699 0.95166,0.9906 1.09137,1.06044 1.59947,0.79943 1.12651,-0.57869 4.71848,-3.43424 4.71848,-3.7511 0,-0.57893 -1.68721,-2.64056 -2.28304,-2.78972 -0.31727,-0.0794 -1.05613,-0.0727 -1.64197,0.0167 -0.83082,0.12419 -1.03586,0.091 -0.93211,-0.15167 0.1355,-0.31664 4.4267,-3.80364 4.85806,-3.94757 0.32363,-0.10817 0.30133,0.60426 -0.0253,0.80558 -0.55146,0.33988 -0.93621,1.7088 -0.67379,2.39721 0.31156,0.8173 1.82827,2.68733 2.17959,2.68733 0.47835,0 5.61156,-4.00308 5.76945,-4.49921 0.1966,-0.61772 -0.52359,-1.81071 -1.77226,-2.93586 -1.4157,-1.27564 -2.17272,-1.57804 -3.95024,-1.57804 -1.44938,0 -1.55846,-0.0338 -1.26033,-0.3925 0.89558,-1.07703 3.71876,-1.39731 4.80509,-0.54508 0.34039,0.26708 1.44244,1.62794 2.44905,3.02412 1.00656,1.39623 2.2942,3.10879 2.86142,3.8056 1.35284,1.6619 1.35013,2.04869 -0.011,1.43057 -0.32351,-0.14713 -0.84824,-0.20216 -1.16609,-0.12243 -0.80806,0.20215 -11.63956,8.36462 -11.99739,9.04092 -0.23456,0.44338 -0.22816,0.76775 0.0325,1.63114 0.30943,1.02544 0.28238,1.34002 -0.11512,1.34002 -0.0974,0 -0.97689,-1.09403 -1.95413,-2.43117 z m -7.36228,-9.74307 c -0.46783,-0.70274 -1.31941,-1.85329 -1.89238,-2.5568 -1.59458,-1.95775 -1.5887,-1.91647 -0.24746,-1.73903 1.15155,0.15213 1.17686,0.14209 1.5475,-0.64134 1.43994,-3.04269 2.0866,-4.61736 2.02573,-4.9326 -0.0596,-0.30845 -0.49253,-0.35292 -2.80254,-0.28794 -1.50269,0.0421 -2.99967,0.20551 -3.32667,0.36294 -0.52418,0.25225 -0.5877,0.4182 -0.53687,1.40295 0.0683,1.32098 -0.19138,1.41403 -0.87353,0.31319 -0.27386,-0.44198 -1.03356,-1.47185 -1.68824,-2.28867 -0.65463,-0.81685 -1.13815,-1.53711 -1.07448,-1.60065 0.0638,-0.0634 0.64724,0.11244 1.29678,0.39122 1.04202,0.44707 1.62327,0.50625 4.94186,0.50319 2.51468,-0.001 3.94832,-0.10049 4.32643,-0.29651 0.78426,-0.40634 3.85508,-8.46348 3.9536,-10.37346 0.0369,-0.71745 0.0789,-1.34425 0.0927,-1.39282 0.0616,-0.21386 0.85444,0.63606 1.40539,1.5065 0.33098,0.52296 1.12624,1.57935 1.76724,2.34754 0.82596,0.98989 1.09153,1.47054 0.91168,1.64986 -0.17987,0.17944 -0.33695,0.17011 -0.53918,-0.0316 -0.41491,-0.41377 -1.24985,-0.34849 -1.66777,0.13063 -0.41223,0.47246 -2.32749,5.34007 -2.32749,5.91526 0,0.33461 0.33492,0.35866 2.91319,0.20933 3.53907,-0.20526 4.10893,-0.42343 4.08499,-1.56443 -0.009,-0.45338 -0.10122,-1.0111 -0.20381,-1.23937 -0.32784,-0.72969 0.44074,-0.47339 0.89859,0.29965 0.23281,0.39311 0.99767,1.42905 1.69969,2.30224 0.702,0.87308 1.23025,1.66194 1.17381,1.75296 -0.0564,0.091 -0.63823,-0.0373 -1.29295,-0.28564 -1.06927,-0.40524 -1.61992,-0.43628 -5.41034,-0.30527 -3.2125,0.1111 -4.28414,0.22584 -4.489,0.48084 -0.14802,0.18397 -0.94574,2.01284 -1.77277,4.06365 -1.29741,3.21724 -1.50924,3.95523 -1.54399,5.37916 -0.0222,0.90769 -0.14361,1.68462 -0.26976,1.72661 -0.12617,0.0421 -0.61221,-0.49865 -1.08001,-1.20141 z m 22.81487,-19.48645 c -0.11097,-0.34211 -8.49403,-6.12265 -8.65145,-5.96566 -0.0716,0.0713 1.23788,2.18586 2.90982,4.69892 l 3.03987,4.56929 1.38998,-1.53085 c 0.76446,-0.84198 1.35477,-1.63923 1.31178,-1.7717 z m -19.79174,-9.30177 c 3.65683,-2.37995 6.70679,-4.24399 6.77768,-4.14226 0.24189,0.34704 10.3118,7.1583 10.42142,7.04896 0.06,-0.0598 -0.31487,-0.78104 -0.83321,-1.60254 -3.10605,-4.92276 -6.98594,-13.52169 -9.34256,-20.70574 -0.55632,-1.69587 -1.08499,-3.16541 -1.17483,-3.26559 -0.09,-0.10024 -0.69115,1.8706 -1.33624,4.37958 l -1.17286,4.56178 -8.08566,4.92221 c -4.44712,2.70723 -8.19051,4.96057 -8.31866,5.00743 -0.30256,0.11074 1.93505,4.7127 3.50708,7.21297 l 1.22349,1.94594 0.84278,-0.51779 c 0.46353,-0.28471 3.83474,-2.46497 7.49157,-4.84495 z m -13.99355,-7.22303 c 6.91718,-4.19456 12.62334,-7.66552 12.68038,-7.71319 0.0571,-0.0476 -0.24865,-0.91173 -0.67931,-1.92021 -0.43061,-1.00847 -1.77502,-4.28846 -2.98756,-7.28889 -12.92453,-31.98182 -16.26978,-60.8239 -9.97239,-85.98021 1.91457,-7.64822 3.88677,-12.99545 7.47957,-20.27944 3.20547,-6.49874 6.19958,-11.39136 10.43543,-17.05233 1.06338,-1.4211 1.90423,-2.60205 1.86856,-2.62431 -0.0356,-0.0214 -6.53101,-4.17396 -14.43409,-9.22609 -11.67147,-7.46112 -14.42543,-9.1282 -14.66852,-8.87926 -0.50944,0.52163 -4.55004,6.94892 -6.4324,10.23187 -3.08233,5.3758 -7.31516,14.29251 -9.47522,19.96013 -5.409955,14.19477 -8.516722,27.5735 -10.024342,43.16798 -0.579174,5.99082 -0.582748,20.52909 -0.0068,26.68354 2.040002,21.7894 8.051017,41.57436 18.169492,59.80397 2.18183,3.93082 5.10422,8.72629 5.32392,8.73629 0.0804,10e-4 5.80586,-3.42528 12.72303,-7.61985 z m -14.21639,-7.86472 c -0.42687,-0.93763 -1.92539,-4.01963 -3.33004,-6.84896 l -2.55394,-5.14414 1.69561,-1.08199 c 0.9326,-0.5951 1.7837,-1.082 1.89134,-1.082 0.41726,0 0.16419,0.65298 -0.49847,1.28617 -1.08461,1.03636 -1.11028,1.6146 -0.16014,3.60987 0.45894,0.96385 0.99667,1.81452 1.19497,1.89044 0.46504,0.17799 12.70028,-5.82134 13.33374,-6.538 0.37527,-0.42449 0.46679,-0.83575 0.43371,-1.94892 -0.0445,-1.50125 0.26064,-1.7505 0.79887,-0.6524 3.80364,7.76043 3.87993,8.00848 1.91979,6.24228 -0.79609,-0.71736 -1.06587,-0.83081 -1.68241,-0.70787 -1.12933,0.22536 -13.14569,6.18856 -13.30507,6.6028 -0.18063,0.46948 1.02179,2.99724 1.72038,3.61669 0.44492,0.39448 0.81455,0.46365 2.19514,0.41066 2.24084,-0.0861 2.04012,0.27701 -0.69936,1.26486 l -2.17794,0.78531 z m -8.36208,-17.41842 c -0.058,-0.0979 -0.54511,-1.7789 -1.08219,-3.73564 -0.53706,-1.95682 -1.29527,-4.56966 -1.68487,-5.80627 -0.38961,-1.23667 -0.62838,-2.32825 -0.53061,-2.42579 0.25838,-0.25766 2.89737,-1.13681 3.41254,-1.13681 0.63201,0 0.53923,0.44787 -0.14657,0.70795 -1.6593,0.62918 -1.9725,2.17219 -1.0118,4.98448 0.43325,1.26831 0.62882,1.55613 1.1026,1.62287 0.80115,0.11268 5.90835,-1.37342 6.05825,-1.76303 0.21247,-0.55233 -0.57331,-2.80276 -1.16457,-3.33517 -0.31183,-0.28079 -1.00121,-0.58368 -1.53195,-0.6731 -0.53075,-0.0895 -0.965,-0.2551 -0.965,-0.36809 0,-0.29748 6.02062,-2.14447 6.24867,-1.91704 0.10544,0.105 -0.23888,0.47507 -0.76493,0.82228 -1.16093,0.76621 -1.36767,1.44789 -0.957,3.15528 0.53543,2.22596 0.43308,2.19447 3.91205,1.20333 1.66748,-0.47506 3.28682,-1.03035 3.59856,-1.23409 0.71021,-0.46414 0.71889,-1.10675 0.0389,-2.87907 -0.70733,-1.84353 -2.11696,-3.2927 -3.58327,-3.68385 -1.37163,-0.36589 -1.33401,-0.76692 0.0814,-0.8691 2.88144,-0.20812 3.67682,0.53155 4.71906,4.38856 0.41649,1.54142 1.03747,3.73725 1.37993,4.87963 0.34244,1.14236 0.55091,2.14854 0.46325,2.23596 -0.0875,0.0876 -0.45842,-0.12681 -0.82389,-0.47602 -0.36547,-0.34925 -0.88859,-0.63497 -1.16248,-0.63497 -0.89171,0 -13.97067,3.81984 -14.39882,4.20538 -0.2289,0.20599 -0.41762,0.70505 -0.41942,1.10884 -0.005,1.35217 -0.42992,2.22585 -0.78782,1.62348 z m -1.65021,-19.04818 c -3.0358,-0.73676 -4.967959,-3.15174 -4.615925,-5.76947 0.0721,-0.53709 0.36666,-1.1711 0.69675,-1.50035 0.505845,-0.50449 0.644415,-0.53706 1.203515,-0.283 0.34748,0.15813 0.7891,0.52653 0.98132,0.81909 0.32852,0.5001 0.30836,0.54904 -0.33619,0.81527 -1.04109,0.43011 -1.530295,1.10058 -1.503035,2.05989 0.046,1.61389 1.517705,2.32306 4.011595,1.933 2.7381,-0.42823 4.85702,-2.16997 4.85702,-3.9924 0,-0.86889 -0.35083,-1.54235 -1.38894,-2.6661 -0.71249,-0.77125 -0.30153,-0.8832 0.7944,-0.2165 2.32323,1.41364 2.99491,5.08304 1.2858,7.02445 -1.30906,1.48706 -3.94935,2.27036 -5.98631,1.776 z m -5.882185,-16.92509 c 0,-3.59569 0.192535,-4.46968 0.694545,-3.15276 0.402425,1.05566 0.891875,1.2296 3.71036,1.31887 3.90029,0.12343 3.68075,0.3911 3.68075,-4.48717 0,-3.61623 -0.0428,-4.04882 -0.41618,-4.20172 -0.22887,-0.0938 -1.61154,-0.17034 -3.07255,-0.17034 -2.456065,0 -2.700975,0.0418 -3.247265,0.55378 -0.32497,0.30458 -0.659424,0.91829 -0.743227,1.36382 -0.08382,0.44552 -0.25454,0.81004 -0.379399,0.81004 -0.134474,0 -0.227034,-1.505 -0.227034,-3.69036 0,-3.64223 0.163303,-4.27524 0.723833,-2.80495 0.120366,0.31576 0.495317,0.67899 0.833167,0.80711 0.909115,0.34472 13.809925,0.27787 14.848085,-0.0771 0.5862,-0.20024 0.99109,-0.57774 1.38525,-1.2911 0.30633,-0.55443 0.63471,-1.00809 0.72973,-1.00809 0.095,0 0.17639,1.60102 0.18077,3.55779 0.004,1.95683 -0.0433,3.55781 -0.10597,3.55781 -0.0627,0 -0.46071,-0.40022 -0.88458,-0.88946 l -0.77067,-0.88944 h -3.60275 c -2.93952,0 -3.646,0.0654 -3.83762,0.35577 -0.28208,0.42729 -0.19714,7.93529 0.0929,8.22316 0.10927,0.10841 1.61826,0.19713 3.35339,0.19713 3.74504,0 4.17024,-0.15813 4.85793,-1.80871 0.26496,-0.63586 0.57389,-1.15612 0.68648,-1.15612 0.11256,0 0.20477,1.76108 0.20477,3.91357 0,4.21748 -0.14431,4.64006 -1.05712,3.09684 -0.73746,-1.24658 -1.47044,-1.34908 -9.07536,-1.26917 -6.417345,0.0674 -6.664835,0.0871 -7.153355,0.57488 -0.27832,0.27777 -0.578174,0.85684 -0.66634,1.2868 -0.08816,0.42995 -0.291324,0.82528 -0.451462,0.87851 -0.221365,0.0736 -0.291147,-0.78922 -0.291147,-3.59938 z m 17.838505,-19.10842 c -0.26553,-0.51916 -0.77887,-1.09659 -1.14076,-1.28324 -0.39565,-0.20406 -3.07316,-0.58168 -6.71589,-0.94712 -7.32871,-0.73536 -8.035845,-0.64974 -8.933495,1.08156 -0.190934,0.36823 -0.505861,0.66952 -0.699832,0.66952 -0.356379,0 -0.351362,-0.62381 0.02957,-3.67639 l 0.11844,-0.94876 7.123987,-4.72126 c 6.09861,-4.04171 7.42897,-5.01034 7.06453,-5.14378 -0.0328,-0.0144 -2.36032,-0.26141 -5.17245,-0.55432 -3.46344,-0.36069 -5.3215,-0.46184 -5.75923,-0.31344 -0.39073,0.1323 -0.93325,0.68421 -1.3721,1.39557 -0.399215,0.64711 -0.810915,1.12409 -0.914865,1.06002 -0.17351,-0.10708 -0.0611,-1.48873 0.39805,-4.88665 l 0.17625,-1.30451 0.535175,1.01758 c 0.29664,0.56403 0.79846,1.11743 1.12583,1.24158 0.32487,0.12342 3.82527,0.54689 7.77867,0.94154 3.95342,0.39465 7.65342,0.78356 8.22225,0.86424 l 1.03422,0.14715 -0.55859,0.53187 c -0.30723,0.29256 -3.76908,2.69266 -7.693,5.33358 -7.48408,5.03699 -7.91504,5.35204 -7.66379,5.6026 0.21861,0.21794 8.2661,1.02797 10.27974,1.03466 2.0378,0.01 3.02647,-0.49683 3.44223,-1.75328 0.50599,-1.52917 0.80099,-1.00784 0.62706,1.10827 -0.26996,3.28468 -0.43958,4.44726 -0.6489,4.44726 -0.11013,0 -0.4175,-0.42476 -0.68304,-0.94385 z m 2.8968,-22.03494 c -0.1355,-0.38762 -0.49688,-0.86851 -0.80309,-1.06863 -0.30623,-0.2 -3.68679,-1.02591 -7.51234,-1.83513 -7.71755,-1.6324 -7.67957,-1.63214 -8.52782,-0.0612 -0.23816,0.44102 -0.56921,0.80188 -0.73566,0.80188 -0.38251,0 -0.38698,0.0633 0.14871,-2.09517 0.24822,-1.00009 0.58226,-2.54342 0.74229,-3.42959 0.31032,-1.71804 0.6706,-1.96099 1.00416,-0.67718 0.13868,0.53379 0.42754,0.86439 0.96218,1.10113 1.02851,0.45556 13.01336,2.96612 14.15939,2.96612 0.89409,0 1.94358,-0.72898 1.94358,-1.35007 0,-0.13874 0.17832,-0.3986 0.39624,-0.57767 0.36014,-0.29585 0.38243,-0.24977 0.24462,0.50463 -0.58995,3.22931 -1.32517,6.27578 -1.53106,6.34424 -0.13465,0.0445 -0.35565,-0.23564 -0.49114,-0.6234 z m -4.56947,-11.70495 c -4.00679,-1.39095 -6.99276,-4.59462 -7.49055,-8.03667 -0.32689,-2.26032 1.0066,-5.3969 3.10357,-7.30004 0.87373,-0.79302 1.00183,-1.17812 0.54385,-1.63488 -0.15471,-0.15431 -0.22797,-0.33399 -0.1626,-0.39914 0.19593,-0.19546 5.51264,1.40083 5.6071,1.68341 0.0537,0.16028 -0.47848,0.32511 -1.38127,0.42699 -4.07578,0.45991 -6.61638,2.6276 -6.63033,5.65706 -0.007,1.4417 0.42519,2.46547 1.5756,3.73549 1.6026,1.7692 3.33236,2.62688 6.38593,3.16641 1.82939,0.32321 4.16973,0.0485 5.52032,-0.64815 0.99285,-0.51206 2.33819,-2.07279 2.68177,-3.11115 0.44029,-1.33054 0.20424,-3.57639 -0.54681,-5.20245 -0.35565,-0.76996 -0.58642,-1.45997 -0.51287,-1.53332 0.64841,-0.64672 2.4873,2.82391 2.6648,5.02945 0.26031,3.23436 -1.44404,6.51147 -4.08853,7.86143 -1.20776,0.61657 -1.70137,0.72467 -3.56041,0.77996 -1.74577,0.0517 -2.45475,-0.0388 -3.70953,-0.4744 z m 14.74847,-14.59184 c -7.1e-4,-0.35876 -0.14431,-0.92512 -0.31875,-1.25863 -0.17455,-0.33351 -2.85697,-3.7337 -5.96107,-7.55599 -3.10412,-3.8223 -5.70103,-7.09835 -5.77098,-7.28011 -0.16982,-0.44125 0.25164,-0.42775 4.55489,0.14592 15.62369,2.08309 14.94275,2.04125 15.74539,0.96727 0.18656,-0.24975 0.35945,-0.29649 0.51354,-0.13948 0.15224,0.15552 -0.13514,0.84996 -0.83431,2.0161 -0.58664,0.97838 -1.3386,2.33925 -1.67101,3.02415 -0.6534,1.3462 -1.02434,1.58642 -1.02434,0.66343 0,-0.90632 -0.47761,-1.73381 -1.16046,-2.01065 -0.92935,-0.37675 -3.66271,-0.7005 -4.07145,-0.48228 -0.19619,0.10488 -0.92589,1.22989 -1.62157,2.50025 -0.93867,1.71423 -1.22709,2.45995 -1.11836,2.89196 0.0806,0.32015 0.72304,1.15716 1.4277,1.85997 1.51613,1.5121 2.10868,1.60716 3.33336,0.53471 0.46676,-0.40874 0.92497,-0.66699 1.01827,-0.57391 0.0934,0.093 -0.12426,0.66763 -0.48361,1.27679 -0.3593,0.60916 -0.99729,1.77466 -1.41775,2.59002 -0.83325,1.61576 -1.13722,1.8372 -1.13949,0.83011 z m -3.6313,-8.42013 c 0.73599,-0.94671 2.0402,-3.75865 1.83722,-3.96107 -0.12599,-0.12558 -1.56298,-0.39328 -3.19312,-0.59454 -3.51398,-0.43394 -3.33484,-0.42713 -3.33484,-0.1261 0,0.37308 3.86832,4.97819 4.18169,4.97819 0.15328,0 0.38226,-0.13325 0.50905,-0.29646 z m 18.79168,122.2698 c 0.46807,-1.89266 0.62469,-2.90366 0.44931,-2.90012 -0.1482,0.001 -1.01837,0.20096 -1.93394,0.4401 -1.16006,0.30297 -1.64088,0.53501 -1.58611,0.76548 0.23721,0.998 2.03836,4.9522 2.18224,4.79076 0.0935,-0.10488 0.49327,-1.49821 0.8885,-3.09622 z m 2.30066,-82.89679 c 0.89134,-3.16837 4.65707,-17.68837 4.65707,-17.95683 0,-0.16604 -1.98139,2.16532 -4.40313,5.18077 -2.42169,3.0154 -4.53527,5.48204 -4.6968,5.48138 -0.16154,-7.1e-4 -2.48753,-0.26568 -5.16888,-0.58892 -2.68135,-0.32321 -4.94354,-0.58951 -5.02712,-0.5918 -0.23962,-0.007 -1.01048,3.06618 -0.818,3.26073 0.2265,0.22894 14.438,6.40052 14.81594,6.43408 0.15979,0.0142 0.44827,-0.53455 0.64092,-1.21941 z m -3.31949,-24.27021 c 1.62514,-7.28896 2.91561,-13.29177 2.86771,-13.33952 -0.30874,-0.30791 -5.37271,7.95474 -7.73336,12.61818 -2.24479,4.43465 -5.69632,12.80712 -5.40105,13.10161 0.0936,0.0935 7.14789,0.98477 7.24844,0.9159 0.035,-0.0251 1.39314,-6.00715 3.01826,-13.29617 z m 5.35239,3.78985 c 1.86265,-2.29553 3.29535,-4.25582 3.18379,-4.35614 -0.11159,-0.10025 -1.13555,-0.6836 -2.27551,-1.29628 -2.05546,-1.10463 -2.07372,-1.10932 -2.20345,-0.56543 -0.3298,1.38277 -2.2638,10.15217 -2.2638,10.26494 0,0.30532 0.35356,-0.0968 3.55897,-4.04709 z M 336.74131,371.4283 c -3.7405,-0.58856 -8.14046,-1.87894 -10.92273,-3.20324 -1.9875,-0.94603 -2.62925,-1.90378 -2.63125,-3.92654 0,-1.13511 0.15787,-1.7509 0.77535,-3.00172 0.66469,-1.34658 1.38167,-2.15015 4.96883,-5.56888 3.55667,-3.38974 9.11776,-9.52504 9.11776,-10.05923 0,-0.089 -1.27986,-1.58937 -2.84418,-3.33433 -1.56431,-1.7449 -2.84852,-3.28025 -2.85376,-3.41182 -0.005,-0.13158 1.48978,-2.53308 3.32235,-5.33667 6.11887,-9.36125 10.40372,-18.90425 13.46291,-29.98387 0.47104,-1.70595 0.93476,-3.1864 1.03048,-3.28988 0.0953,-0.10329 2.38821,0.36428 5.09448,1.03954 2.70623,0.67527 4.95362,1.18691 4.99414,1.13697 0.0406,-0.05 0.72176,-1.85195 1.51373,-4.00444 9.64933,-26.22423 12.58032,-49.3868 8.96855,-70.87481 -0.33583,-1.9978 -0.68477,-3.82688 -0.77552,-4.06468 -0.14738,-0.38604 -1.1398,-0.0144 -9.27299,3.48245 -5.00943,2.15309 -9.15501,3.86783 -9.21248,3.81053 -0.0574,-0.0574 -1.93246,-7.03425 -4.16662,-15.50438 -2.23414,-8.47012 -4.2024,-15.61709 -4.37387,-15.8822 -0.29645,-0.4582 -0.0898,-0.59657 4.17813,-2.80369 3.45965,-1.78886 4.49003,-2.4261 4.49003,-2.7768 0,-1.20755 -2.95877,-13.66933 -3.37103,-14.19831 -0.24975,-0.32039 -0.35723,-0.66449 -0.24323,-0.77821 0.11268,-0.11219 7.62743,-4.95099 16.70002,-10.753 l 16.49557,-10.54906 0.45272,0.71314 c 0.249,0.39229 0.50594,0.71323 0.57104,0.71323 0.0649,0 0.42433,-0.21747 0.79844,-0.48306 l 0.68019,-0.48306 1.96367,2.91423 c 4.68279,6.94964 10.17918,17.11529 13.50237,24.97256 6.97598,16.49416 11.04868,33.6526 12.368,52.10693 0.31979,4.47355 0.32068,15.94227 0.001,20.63128 -0.93798,13.78343 -3.52235,26.96639 -7.75722,39.56972 -3.73338,11.11107 -10.08127,24.21822 -16.42649,33.9177 -0.98139,1.50021 -1.81294,2.75986 -1.84792,2.79923 -0.0349,0.0393 -2.64967,-1.49402 -5.81055,-3.40737 -3.16083,-1.91339 -5.78287,-3.43987 -5.82677,-3.39216 -0.0438,0.0476 -0.77493,1.4743 -1.62452,3.17017 -0.84964,1.69587 -2.57407,4.61243 -3.83205,6.48113 -1.25801,1.86875 -2.28587,3.46976 -2.28415,3.55782 10e-4,0.0881 1.43629,1.01395 3.1879,2.05756 l 3.18471,1.89749 -0.44988,0.73448 c -0.51555,0.84173 -0.41177,1.04441 0.5348,1.04441 0.37054,0 0.67376,0.10866 0.67376,0.24152 0,0.37349 -2.31361,4.88349 -3.3974,6.62258 -3.23358,5.18888 -8.28572,10.65625 -12.23961,13.2457 -2.60806,1.70805 -4.78267,2.63626 -8.79578,3.75464 -4.08669,1.13881 -7.02772,1.25002 -12.07156,0.4564 z m 7.72892,-2.98647 c 2.36929,-0.37711 7.05265,-1.82489 8.91351,-2.75551 4.49592,-2.24826 8.64323,-6.22851 12.52667,-12.02206 1.6995,-2.53537 3.67714,-6.04492 3.48608,-6.18627 -0.14449,-0.10621 -18.39547,-11.23437 -19.23183,-11.72562 l -0.84547,-0.49653 -1.99821,3.31793 c -3.79736,6.30542 -9.11793,12.86507 -15.41981,19.01085 -4.45941,4.34893 -5.37257,5.52854 -5.22247,6.74629 0.063,0.51147 0.34825,0.71064 1.85804,1.2975 3.30569,1.28481 5.80846,1.937 9.51253,2.47884 4.40439,0.64427 4.458,0.64704 6.42096,0.33458 z m -1.9014,-28.83309 c 1.19,-1.7762 2.12379,-3.26913 2.07508,-3.3177 -0.0677,-0.0676 -6.37278,3.28123 -6.804,3.61385 -0.0923,0.0713 2.32822,2.93321 2.48105,2.93321 0.0464,0 1.05787,-1.45319 2.24787,-3.22936 z m 23.10759,-3.94878 c 2.22504,-3.37636 5.44199,-9.29154 5.16919,-9.505 -0.0533,-0.0418 -3.76468,-2.29368 -8.24739,-5.00436 -4.48279,-2.71059 -8.2404,-5.10375 -8.35025,-5.31798 -0.10975,-0.21435 -0.66624,-2.28409 -1.23636,-4.59965 -0.57003,-2.31552 -1.09308,-4.20768 -1.16228,-4.2047 -0.0692,10e-4 -0.53789,1.3104 -1.04163,2.90551 -2.47321,7.83219 -6.70962,17.00901 -10.67753,23.12957 -0.78555,1.21176 -1.38783,2.23906 -1.33842,2.28288 0.0496,0.0438 2.06969,-1.02553 4.48941,-2.37642 2.41975,-1.35086 4.51218,-2.4582 4.6498,-2.46078 0.23828,-0.005 2.60674,1.41125 11.16199,6.67091 2.09118,1.28567 3.85699,2.33609 3.92394,2.3343 0.0666,-10e-4 1.26372,-1.73623 2.65953,-3.85428 z m 21.51943,-9.84108 c 12.08063,-20.23797 18.64846,-40.98682 20.81535,-65.75891 0.38371,-4.38685 0.37957,-19.22263 -0.007,-23.48151 -2.49931,-27.56672 -10.40144,-50.932 -24.61135,-72.77172 -0.86474,-1.32908 -1.62115,-2.41647 -1.68086,-2.41647 -0.0596,0 -6.4571,4.06454 -14.21634,9.03232 -7.75938,4.96782 -14.26311,9.12 -14.45291,9.2271 -0.27898,0.15742 -0.18491,0.39191 0.49175,1.22595 3.14166,3.87236 7.80324,11.13876 10.62821,16.56701 5.80354,11.15163 9.25943,22.45178 10.91707,35.69661 0.52785,4.21745 0.60124,19.72681 0.11464,24.19304 -1.46155,13.4109 -4.41888,26.13398 -9.22139,39.67242 -1.46319,4.1249 -4.95283,12.95378 -6.19789,15.68101 -0.43922,0.96207 -0.79745,1.86928 -0.79606,2.01605 0.001,0.2599 24.85125,15.51475 25.32461,15.54704 0.13087,0.007 1.43214,-1.9846 2.89183,-4.42994 z m -8.9561,-6.37407 c -2.60605,-0.50025 -5.75265,-2.08888 -7.46331,-3.76801 -1.73303,-1.70101 -2.3763,-3.09229 -2.48611,-5.37729 -0.28636,-5.95368 4.56826,-9.86718 10.42506,-8.40405 3.73659,0.93346 7.23286,3.35558 8.50192,5.88998 2.04424,4.08227 0.34324,9.19601 -3.66803,11.02756 -1.26354,0.57697 -3.93763,0.89517 -5.30953,0.63181 z m 5.24822,-3.07729 c 3.01124,-0.88602 4.53926,-4.2444 3.12795,-6.87459 -0.50913,-0.94875 -2.48859,-2.52067 -4.17023,-3.31161 -4.17503,-1.96361 -8.85832,-2.27462 -11.14163,-0.73995 -1.70795,1.1479 -2.43069,3.23451 -1.84499,5.32632 1.06228,3.79399 9.16885,7.02985 14.0289,5.59983 z m 6.80103,-11.40021 c -0.087,-0.087 -0.15838,-0.444 -0.15838,-0.79341 0,-0.34942 -0.2055,-0.82083 -0.45693,-1.04767 -0.52184,-0.47106 -13.46445,-5.27363 -14.82946,-5.50272 -0.82729,-0.13901 -0.97267,-0.0731 -1.83079,0.82645 -0.51267,0.53749 -0.99004,0.8838 -1.06084,0.76957 -0.0708,-0.11402 0.17344,-0.94012 0.54369,-1.8353 0.36982,-0.89525 0.91248,-2.34817 1.20599,-3.22869 0.56014,-1.68063 0.83917,-1.95428 1.08829,-1.06732 0.3085,1.09845 0.67457,1.56402 1.51491,1.92667 2.59222,1.11883 13.4614,4.89244 14.0916,4.89244 0.54144,0 0.9438,-0.22249 1.50194,-0.83016 0.66907,-0.7285 1.32317,-1.07674 1.32317,-0.70441 0,0.0693 -0.27043,0.7666 -0.60098,1.54991 -0.33056,0.78329 -0.87029,2.27434 -1.19945,3.31344 -0.56766,1.79228 -0.76652,2.09629 -1.13257,1.7312 z m 0.53093,-9.19636 c -1.12497,-0.2946 -2.1684,-0.61148 -2.31872,-0.70407 -0.60171,-0.37097 -0.20836,-0.61489 0.99153,-0.61489 0.69563,0 1.79548,-0.15716 2.44409,-0.34925 2.65408,-0.78608 3.98619,-3.81507 2.35151,-5.34678 -0.69859,-0.65457 -2.11912,-1.14255 -2.89511,-0.99459 -0.33811,0.0641 -1.75068,1.19601 -3.2094,2.57101 -2.21442,2.08718 -2.80021,2.51229 -3.9023,2.83185 -1.03981,0.30148 -1.53185,0.32569 -2.48351,0.12183 -3.58247,-0.76621 -5.69859,-2.83011 -5.69859,-5.55797 0,-1.42968 0.42472,-2.42554 1.78816,-4.19277 0.86904,-1.12647 1.20203,-1.39643 1.61528,-1.30962 0.28627,0.0601 1.47814,0.22752 2.64857,0.37172 1.17044,0.14426 2.21384,0.31525 2.31868,0.37995 0.53167,0.32767 10e-4,0.50866 -1.81871,0.62202 -3.12048,0.19425 -4.79499,1.2021 -5.3545,3.22309 -0.61715,2.22912 1.21251,4.30869 3.79072,4.30869 1.0494,0 2.26852,-0.86972 4.64325,-3.31285 0.78478,-0.80742 1.82396,-1.67309 2.30922,-1.92381 2.43297,-1.25692 6.42415,0.17918 7.58552,2.72942 0.80257,1.76234 0.47163,3.34277 -1.10064,5.25654 -0.54717,0.66593 -0.82732,1.25447 -0.82732,1.73789 0,0.88055 -0.0803,0.88482 -2.87773,0.15192 z m 4.42948,-13.57121 c -1.30467,-0.16985 -2.52646,-0.36781 -2.71515,-0.44006 -0.57599,-0.22057 0.007,-0.53607 1.48721,-0.80494 2.81984,-0.51226 4.43242,-1.9809 4.43242,-4.03687 0,-1.30864 -0.47642,-2.07779 -1.56923,-2.53316 -1.88731,-0.78656 -2.66251,-0.35882 -5.24881,2.89619 -2.5042,3.15155 -4.0929,3.94384 -6.87859,3.43021 -3.40732,-0.62821 -5.31111,-2.55714 -5.32322,-5.39345 -0.002,-0.97801 0.1945,-1.61535 0.97974,-3.14272 l 0.98494,-1.91596 h 2.95882 c 2.18722,0 2.93408,0.0738 2.86412,0.2832 -0.052,0.15599 -0.86352,0.41242 -1.80324,0.57034 -1.99549,0.33531 -3.68093,1.23177 -4.33911,2.30791 -1.55392,2.54063 -0.16889,5.11226 2.87132,5.33157 1.33569,0.0961 1.4177,0.0679 2.36016,-0.81667 0.53705,-0.5041 1.69639,-1.82377 2.57635,-2.93261 2.37391,-2.99129 3.9382,-3.59798 6.96526,-2.70143 1.61594,0.47863 3.1293,1.90962 3.56954,3.37536 0.38902,1.29501 0.0567,2.70295 -0.99937,4.23388 -0.5562,0.80623 -0.70033,1.22764 -0.59659,1.74476 0.0749,0.37504 0.0601,0.72037 -0.0338,0.76751 -0.0936,0.0472 -1.23804,-0.0534 -2.5427,-0.22296 z m 1.82337,-13.29588 c -0.85077,-0.16197 -0.47367,-0.64606 0.61904,-0.79433 1.69453,-0.2299 2.1893,-1.01455 2.53423,-4.01803 0.23207,-2.01997 0.0815,-2.12485 -3.66635,-2.55945 -3.74499,-0.43429 -3.81328,-0.40018 -3.81328,1.90463 0,1.46333 0.25973,1.90391 1.66466,2.82346 0.32699,0.21413 0.52244,0.46383 0.43435,0.55511 -0.18947,0.19616 -6.25402,-0.24574 -6.64045,-0.484 -0.35379,-0.21795 0.19953,-0.57031 0.90351,-0.57518 0.86055,-0.005 1.68754,-0.49939 1.94596,-1.16103 0.40969,-1.04912 0.58529,-3.27035 0.27374,-3.46237 -0.15241,-0.0939 -1.87713,-0.34194 -3.83321,-0.55137 l -3.55654,-0.38077 -0.52908,0.52775 c -0.45982,0.45855 -0.52673,0.76798 -0.51052,2.36087 0.0215,2.18297 0.53634,3.37502 1.99152,4.61731 0.52771,0.45051 0.95945,0.90079 0.95945,1.00064 0,0.24678 -1.61959,-0.073 -2.39412,-0.47244 -0.3448,-0.17776 -0.9638,-0.70609 -1.37561,-1.17383 -0.87382,-0.99263 -0.898,-1.29855 -0.40721,-5.15053 0.18805,-1.47431 0.41446,-3.5077 0.50359,-4.51868 0.10976,-1.24642 0.25952,-1.83821 0.46503,-1.83821 0.16674,0 0.36978,0.26547 0.45146,0.58997 0.28002,1.11269 0.89408,1.26807 7.97656,2.0178 3.70374,0.39206 7.23835,0.71282 7.85469,0.71282 1.19982,0 1.57649,-0.26413 2.17354,-1.52418 0.18063,-0.3817 0.47646,-0.74208 0.65686,-0.80085 0.26259,-0.0851 0.30376,0.17105 0.20622,1.28702 -0.17178,1.96934 -0.88494,9.02358 -1.03357,10.22902 l -0.12412,1.00805 -1.59067,-0.0323 c -0.87488,-0.0167 -1.83763,-0.0794 -2.13945,-0.13684 z m -14.41679,-13.80643 c -0.61515,-0.67797 -0.74147,-2.16261 -0.26252,-3.08627 0.47378,-0.91384 1.93128,-1.62809 6.0723,-2.97583 1.50416,-0.4895 2.93389,-1.07913 3.1772,-1.3102 0.249,-0.2366 0.49519,-0.88719 0.56321,-1.48903 0.14304,-1.26671 0.33936,-1.19011 -4.14824,-1.6186 -3.26019,-0.3113 -3.74641,-0.1792 -4.46855,1.21347 -0.59014,1.13824 -0.91815,0.89368 -0.7187,-0.53588 0.0951,-0.68486 0.2521,-2.2327 0.34805,-3.43961 0.18469,-2.3251 0.37815,-2.82487 0.81587,-2.1086 0.69276,1.13347 1.19456,1.58117 2.00628,1.78997 0.48347,0.12444 3.96203,0.52423 7.73009,0.8886 7.72194,0.74675 7.74425,0.74432 8.56701,-0.92868 0.68087,-1.38459 0.96486,-1.12445 0.7805,0.71486 -0.088,0.88057 -0.26828,2.88182 -0.40007,4.44727 -0.28275,3.35862 -0.486,4.21274 -1.27796,5.37064 -1.77493,2.59504 -6.56776,2.4888 -8.191,-0.18184 -0.35089,-0.57729 -0.80587,-1.02654 -1.04388,-1.03073 -0.52222,-0.01 -7.97314,2.74147 -8.41381,3.1062 -0.17607,0.1457 -0.32009,0.57214 -0.32009,0.94752 0,0.79606 -0.23876,0.8624 -0.81569,0.22655 z M 399.64,250.5073 c 1.21517,-0.64097 1.9055,-1.78369 1.9055,-3.15437 0,-0.79377 -0.10377,-1.02091 -0.56285,-1.22943 -0.88411,-0.40177 -7.005,-0.90611 -7.30963,-0.60227 -0.13947,0.13923 -0.31233,0.9017 -0.38445,1.69493 -0.25099,2.76085 0.76398,3.82829 3.64159,3.82982 1.29756,0 1.92281,-0.12369 2.70984,-0.53868 z m -8.77269,-13.26191 c -0.74539,-0.66752 -0.90424,-0.71289 -2.02142,-0.57676 -0.66688,0.0814 -1.74774,0.21243 -2.402,0.29171 l -1.18943,0.14402 -1.04224,-1.38953 c -0.5733,-0.76425 -1.42156,-2.1785 -1.88511,-3.14281 -0.74294,-1.5454 -0.84478,-1.98105 -0.85979,-3.67637 -0.0144,-1.64357 0.0792,-2.1184 0.644,-3.26579 1.51983,-3.08672 5.10911,-4.94285 9.55811,-4.94285 4.59201,0 7.81706,1.61856 9.31679,4.67577 0.88326,1.80062 0.92636,4.44254 0.11097,6.80341 l -0.56503,1.63595 0.53902,0.40553 c 0.31368,0.23612 0.43733,0.46818 0.2958,0.55541 -0.39763,0.24499 -5.56916,0.90643 -5.73399,0.7333 -0.0833,-0.0876 0.0488,-0.28031 0.29342,-0.42809 3.46547,-2.09151 4.25315,-2.95015 4.65764,-5.07727 0.50555,-2.65889 -0.48751,-4.82432 -2.74363,-5.9823 -0.98623,-0.50622 -1.54511,-0.60591 -3.77969,-0.67472 -2.96782,-0.0917 -5.03631,0.28395 -7.20487,1.30711 -1.60886,0.75911 -3.33294,2.28035 -3.77601,3.33181 -0.77076,1.82907 -0.0842,4.7419 1.34744,5.71764 0.73084,0.49803 1.01425,0.54927 2.41537,0.43687 2.50273,-0.20073 3.5256,-0.93022 3.5256,-2.51424 0,-0.47017 0.11915,-0.72714 0.33783,-0.72714 0.37831,0 0.5154,0.55165 0.73677,2.96484 0.0838,0.91318 0.25514,2.13101 0.38074,2.70626 0.12584,0.57527 0.14378,1.12853 0.0406,1.2294 -0.10342,0.10121 -0.55193,-0.14258 -0.99684,-0.54111 z m -8.02513,-18.6908 c -2.75033,-0.90105 -4.94092,-3.56478 -5.52553,-6.71902 -0.8255,-4.45361 2.38129,-8.27977 8.08181,-9.64274 5.20765,-1.24512 9.22185,0.23349 11.21262,4.1301 0.59084,1.15653 0.75516,1.81327 0.84105,3.3613 0.0951,1.71752 0.0369,2.07955 -0.54544,3.37335 -1.55071,3.44632 -5.35486,5.60123 -10.34341,5.85913 -1.84773,0.0957 -2.52555,0.0295 -3.7211,-0.36212 z m 4.79121,-2.28498 c 3.53045,-0.88479 7.00157,-3.23932 7.99912,-5.42589 1.27305,-2.79057 -0.13876,-5.9543 -3.00504,-6.73525 -3.30108,-0.89933 -9.09093,1.04588 -12.10726,4.06762 -2.22144,2.22547 -2.53894,3.92266 -1.17594,6.28647 1.31341,2.27771 4.03956,2.87199 8.28912,1.80705 z m -12.6715,-11.60717 c -0.72288,-0.50504 -1.24062,-1.57414 -1.24062,-2.56202 0,-0.89802 0.57196,-1.72575 3.8645,-5.59274 1.41163,-1.65789 1.84306,-2.33204 1.84306,-2.87987 0,-0.70806 -0.58408,-2.11484 -0.87807,-2.11484 -0.41299,0 -5.9695,2.71713 -6.43468,3.14655 -0.41256,0.38084 -0.53515,0.75598 -0.53515,1.63855 0,1.30762 -0.37426,1.5051 -0.76018,0.40105 -0.14305,-0.40894 -0.78044,-1.80512 -1.41661,-3.10267 -0.63627,-1.29757 -1.09387,-2.46073 -1.01694,-2.58486 0.0792,-0.12774 0.49962,-0.001 0.96837,0.28507 0.57554,0.35472 1.06028,0.4732 1.58726,0.38791 1.13829,-0.18396 13.53524,-6.02337 14.01516,-6.60135 0.2711,-0.3265 0.41619,-0.90549 0.41619,-1.66091 0,-0.84841 0.0913,-1.1596 0.34068,-1.1596 0.18757,0 0.41127,0.24026 0.49743,0.53367 0.0861,0.29351 0.96024,2.20997 1.94236,4.25887 1.59845,3.33485 1.78551,3.87178 1.78551,5.1247 0,2.1493 -0.97292,3.55397 -3.13911,4.53193 -1.35027,0.60961 -2.68302,0.61422 -4.00937,0.0167 -0.57018,-0.25805 -1.12424,-0.46913 -1.23137,-0.46913 -0.10694,0 -1.43307,1.53128 -2.94669,3.4029 -2.56958,3.1774 -3.11893,4.17003 -2.51419,4.54283 0.3966,0.24452 0.26617,0.83017 -0.18493,0.83017 -0.23254,0 -0.66117,-0.16651 -0.95264,-0.37017 z m 10.06056,-10.15088 c 1.31774,-0.61201 2.65289,-1.81704 2.98843,-2.69716 0.33325,-0.87437 0.25907,-2.09495 -0.18375,-3.02107 -0.61398,-1.28415 -1.06777,-1.23524 -4.7665,0.51354 -1.53971,0.72799 -2.86816,1.42974 -2.95212,1.55944 -0.37111,0.57343 0.78185,2.87535 1.86638,3.7262 0.79266,0.62184 1.57936,0.60094 3.04754,-0.0809 z m -21.22992,-10.13565 c -0.35968,-0.66409 -1.10647,-1.91818 -1.65956,-2.78696 -0.8822,-1.38567 -1.21749,-2.17248 -0.92594,-2.17248 0.0493,0 0.46298,0.15549 0.91905,0.34553 0.63161,0.26317 1.03655,0.28839 1.69964,0.10598 0.94424,-0.26005 12.03686,-6.80961 12.9523,-7.64758 0.49105,-0.44955 0.54416,-0.66491 0.43334,-1.75758 -0.10902,-1.07394 -0.0691,-1.24523 0.28809,-1.24523 0.24598,0 0.58474,0.36179 0.83323,0.88944 0.23039,0.48917 1.17898,2.1092 2.10801,3.59997 0.92909,1.49079 1.82586,3.09179 1.99291,3.55779 0.99997,2.78962 -0.4762,5.47142 -3.66767,6.66319 -1.69054,0.63125 -2.57712,0.59184 -4.10901,-0.18277 -1.40131,-0.70849 -2.57472,-2.24356 -2.66887,-3.49136 -0.0731,-0.9658 0.46733,-1.00549 0.86206,-0.0634 0.77148,1.84164 2.56206,2.31536 4.80836,1.27213 1.41424,-0.65683 2.89086,-2.27052 3.10131,-3.38917 0.3452,-1.8356 -0.72249,-3.84302 -1.86996,-3.51579 -0.88003,0.25093 -12.55598,7.29798 -13.28783,8.01988 -0.56475,0.557 -0.6798,0.86814 -0.6798,1.83822 0,0.64224 -0.10695,1.16769 -0.23803,1.16769 -0.13087,0 -0.53211,-0.54334 -0.89179,-1.20742 z m -5.67308,123.40848 c 0.59572,-1.38204 0.76062,-1.99558 0.55516,-2.06527 -0.5696,-0.1933 -3.21823,-0.83088 -3.4516,-0.83088 -0.13135,0 0.0732,1.24254 0.459,2.78696 0.91525,3.66573 0.90816,3.65024 1.28201,2.78693 0.16939,-0.39138 0.68942,-1.59633 1.15543,-2.67774 z m 3.19362,-84.75062 c 4.01241,-1.70969 7.39252,-3.19966 7.5115,-3.31102 0.22656,-0.21219 -0.50223,-3.30679 -0.77772,-3.30315 -0.0835,0.001 -2.2923,0.26638 -4.90827,0.5895 -2.61595,0.3231 -4.94192,0.58901 -5.16886,0.59092 -0.25481,0.001 -2.09652,-2.09321 -4.81571,-5.47908 -2.42172,-3.01545 -4.40327,-5.33692 -4.40344,-5.15883 0,0.27415 4.58413,18.01944 4.87848,18.88366 0.0555,0.16316 0.16554,0.29646 0.24476,0.29646 0.0793,0 3.42674,-1.39878 7.43913,-3.10846 z m 5.69157,-10.03722 c 0.17177,-0.17128 -2.39053,-6.68528 -3.973,-10.09863 -2.35246,-5.07425 -6.83953,-12.83983 -8.71456,-15.08185 -0.57363,-0.68587 -0.57699,-0.68662 -0.45047,-0.0983 0.18157,0.84526 5.56193,25.16035 5.69762,25.74934 l 0.11293,0.48896 3.61898,-0.43516 c 1.99045,-0.23923 3.65947,-0.47538 3.70876,-0.52454 z m -13.2596,-9.86088 c -0.654,-2.91298 -1.18913,-5.34189 -1.18913,-5.39761 0,-0.11817 -4.0661,2.03703 -4.3602,2.31108 -0.10877,0.10171 1.31963,2.07208 3.175,4.37872 1.85539,2.30661 3.41624,4.15117 3.4685,4.099 0.0525,-0.0517 -0.44007,-2.4782 -1.09417,-5.39119 z M 165.92066,168.96393 c -0.67718,-0.38572 -1.9015,-1.32964 -2.72069,-2.09759 l -1.4894,-1.39627 v -2.455 c 0,-1.7374 0.13232,-2.88712 0.45262,-3.93345 0.42091,-1.37489 0.50989,-1.48922 1.26971,-1.63138 2.31424,-0.43301 5.48017,0.35311 6.82541,1.69478 1.54367,1.53962 2.02561,4.39977 1.08832,6.45927 -0.47814,1.05065 -2.30856,2.96129 -3.50555,3.65916 -0.67147,0.3915 -0.72079,0.3838 -1.92042,-0.29952 z m 165.46331,-0.13733 c -1.11759,-0.7429 -2.6504,-2.34019 -3.12497,-3.25651 -1.08354,-2.09226 -0.70429,-5.26594 0.8032,-6.72087 1.49612,-1.44398 4.30288,-2.2068 6.59473,-1.79238 1.01536,0.18373 1.07383,0.24074 1.52282,1.49131 0.6327,1.76204 0.81026,5.27739 0.32516,6.4354 -0.38936,0.9294 -2.69985,2.99012 -4.21931,3.76328 -1.11906,0.5694 -1.16225,0.57121 -1.90163,0.0797 z m -152.13279,-7.25983 -3.38696,-1.21723 0.5332,-0.57119 c 0.29326,-0.31412 1.56588,-1.52269 2.82801,-2.68574 l 2.29475,-2.1146 3.29384,1.22469 c 1.81161,0.67359 3.34197,1.26602 3.40084,1.31654 0.15979,0.13732 -5.05376,5.29653 -5.33484,5.27947 -0.13305,-0.007 -1.766,-0.56241 -3.62884,-1.23194 z M 313.9191,160.2122 c -1.43002,-1.43064 -2.5518,-2.63942 -2.493,-2.68618 0.0592,-0.0467 1.58454,-0.63444 3.39038,-1.30601 2.58283,-0.96052 3.37149,-1.16618 3.69628,-0.96385 0.22705,0.14138 1.5158,1.34774 2.86379,2.68059 l 2.45092,2.4235 -3.44886,1.22656 c -1.8969,0.67463 -3.54126,1.22659 -3.65423,1.22659 -0.11293,0 -1.37533,-1.17055 -2.80528,-2.6012 z m -115.87785,-0.007 c -6.83487,-1.4566 -7.11159,-7.65273 -0.46461,-10.40431 3.22487,-1.33492 8.02162,-1.85825 11.0655,-1.20715 4.87698,1.04316 6.35942,5.48894 2.87667,8.62713 -1.99851,1.80077 -5.6528,2.9516 -9.85557,3.10385 -1.43877,0.0518 -3.06867,-0.001 -3.62199,-0.11987 z m 96.91584,-0.0214 c -4.07173,-0.59547 -7.43691,-2.29227 -8.62073,-4.34678 -1.19196,-2.0688 -0.97396,-3.86843 0.66691,-5.50499 2.52786,-2.52119 9.62366,-2.73237 14.61476,-0.43493 3.29672,1.51752 4.6457,3.10827 4.65923,5.49426 0.0192,3.69237 -4.82232,5.74277 -11.32017,4.79244 z m -47.86021,-3.80296 c -3.33715,-0.485 -5.93503,-1.9247 -6.9451,-3.84885 -0.45434,-0.8655 -0.45487,-3.00461 0,-3.87162 2.36859,-4.52408 14.57856,-5.29495 18.91329,-1.19408 2.17518,2.05782 1.88411,5.44326 -0.60901,7.08361 -2.61519,1.72074 -7.12007,2.44688 -11.35824,1.83094 z m -86.4132,-0.9296 c -1.7756,-1.07971 -2.22674,-4.09138 -0.82265,-5.49179 0.77226,-0.77024 3.80774,-1.79751 13.59432,-4.60063 20.73181,-5.93815 36.41416,-8.5362 57.93458,-9.59783 6.82675,-0.33677 29.60653,-0.33513 36.7422,0.002 24.85567,1.17662 42.50919,4.41045 68.77052,12.59765 3.30849,1.03148 4.07309,1.5901 4.37525,3.1966 0.3747,1.99192 -1.30627,4.37493 -3.08603,4.37493 -0.40602,0 -2.82484,-0.64727 -5.37504,-1.43836 -24.57826,-7.62425 -42.12728,-10.72738 -66.58719,-11.77439 -6.54671,-0.28022 -29.77767,-0.19116 -35.90986,0.13827 -22.50159,1.20721 -37.97043,4.0538 -62.10537,11.42859 -2.96277,0.90533 -5.69169,1.6457 -6.06427,1.64517 -0.37256,-4.7e-4 -1.03247,-0.21674 -1.46646,-0.48068 z m 62.6702,-1.73467 -3.27978,-1.74087 3.04197,-2.21045 c 1.67307,-1.21575 3.14899,-2.20966 3.27978,-2.20874 0.13073,9.3e-4 1.75123,0.79489 3.60098,1.76426 l 3.36311,1.76251 -3.00639,2.10463 c -1.65356,1.15751 -3.16697,2.14169 -3.36315,2.18707 -0.19623,0.0454 -1.83264,-0.70091 -3.63652,-1.65841 z m 45.79269,-0.43831 -3.13911,-2.1802 3.49689,-1.83227 c 1.92329,-1.00776 3.61534,-1.7611 3.76015,-1.6741 0.14472,0.0868 1.56354,1.11052 3.15276,2.27441 l 2.8895,2.1163 -3.26863,1.72852 c -1.79774,0.9507 -3.37749,1.73284 -3.51051,1.73804 -0.13325,0.007 -1.65449,-0.97158 -3.38105,-2.1707 z M 163.3506,144.46457 c -1.41692,-0.46447 -3.06299,-1.67253 -4.15307,-3.04796 -1.4053,-1.77316 -2.94256,-4.44942 -2.69414,-4.69034 0.11707,-0.11378 1.54825,-0.99789 3.18012,-1.9649 l 2.96702,-1.75825 1.03876,1.74088 c 1.45051,2.43092 1.93633,2.77153 3.7288,2.6146 1.93289,-0.16939 3.74895,-0.75827 4.63779,-1.50417 1.4988,-1.25782 2.62553,-4.39603 2.66495,-7.4224 l 0.0249,-1.91712 1.92479,-0.57288 c 1.05862,-0.3151 2.64341,-0.78226 3.52175,-1.03814 l 1.59698,-0.46523 0.6934,1.21971 c 2.19489,3.86079 4.40509,5.79025 6.89019,6.01499 2.01011,0.18181 3.02302,-0.0708 4.07154,-1.01567 1.78498,-1.60838 2.65469,-4.93197 2.71211,-10.36433 0.0306,-2.88892 0.0994,-3.51849 0.39372,-3.59949 1.82074,-0.50114 6.72896,-1.3387 6.87403,-1.17302 0.10086,0.11525 0.42618,0.90322 0.72289,1.75116 0.8165,2.33336 2.72777,6.13962 3.7517,7.47139 1.65972,2.15874 4.22833,3.43918 6.89911,3.43918 2.02033,0 3.62657,-1.00198 5.07578,-3.16643 1.31627,-1.96582 1.88473,-3.97891 1.88473,-6.67415 v -2.20065 l 1.48632,-0.1412 c 0.81751,-0.0778 2.46036,-0.20936 3.65081,-0.29266 l 2.16447,-0.15139 0.15417,0.76904 c 0.085,0.42298 0.15549,1.20934 0.15679,1.74745 0.005,1.91627 1.38653,5.15419 2.87665,6.7422 2.20555,2.35043 4.13198,2.66377 7.17015,1.16618 2.9591,-1.45862 4.64556,-3.73884 5.64346,-7.63036 0.46601,-1.81722 0.95194,-6.14504 0.95336,-8.49063 v -1.36362 h 3.64784 3.64783 l 0.27191,3.51092 c 0.30022,3.87689 1.03547,7.1951 2.08066,9.39019 1.5037,3.15809 4.63088,5.44046 7.49201,5.46808 1.07484,0.01 1.54673,-0.12357 2.49401,-0.70705 1.34733,-0.83016 2.71751,-2.65145 3.45472,-4.59228 0.38366,-1.01007 1.08514,-4.76885 1.16043,-6.21789 0.01,-0.1329 1.38917,0.0488 5.80311,0.76324 l 1.63386,0.26443 -0.15694,2.04914 c -0.23515,3.07334 0.58595,5.45468 2.63296,7.63734 1.54774,1.65029 2.87057,2.20241 4.95451,2.06785 4.20604,-0.27163 6.28637,-2.41074 8.9447,-9.19777 0.68983,-1.76111 1.2701,-3.22886 1.28952,-3.26173 0.0192,-0.033 1.6215,0.26068 3.56,0.65227 1.9385,0.39158 3.56143,0.71197 3.60643,0.71197 0.045,0 0.0814,1.26684 0.0814,2.8152 0,6.08042 1.32464,9.91678 3.87152,11.21268 1.50885,0.76772 4.14481,0.72414 5.94603,-0.0983 1.60032,-0.73071 3.3783,-2.45308 4.43642,-4.29759 l 0.7392,-1.28864 1.8376,0.5536 c 1.0107,0.30443 2.62172,0.78232 3.58005,1.0619 l 1.74244,0.50835 -0.14641,0.87396 c -0.23302,1.39046 0.28069,4.24522 1.00588,5.59136 0.85754,1.59173 1.93463,2.17323 4.70754,2.54142 3.28149,0.43579 4.87191,-0.0852 5.80045,-1.90058 l 0.48384,-0.94585 2.79568,1.14891 c 3.56805,1.46637 4.10371,1.71475 4.10371,1.90284 0,0.45183 -1.8534,3.13542 -2.898,4.19608 -2.27377,2.30879 -4.56545,3.15855 -8.51705,3.15807 -3.00544,-4.9e-4 -6.27915,-0.62275 -8.09022,-1.53808 -1.66302,-0.84048 -4.03425,-3.2109 -4.86848,-4.8667 -0.35968,-0.71384 -0.68049,-1.32833 -0.71302,-1.36559 -0.0328,-0.0373 -0.68844,0.30254 -1.45773,0.7551 -2.02426,1.19084 -4.16565,1.82882 -6.63101,1.97555 -3.88148,0.23109 -6.89184,-0.6298 -9.54075,-2.72816 -1.24804,-0.98868 -3.06647,-3.47491 -3.75767,-5.13771 l -0.38807,-0.93359 -1.12326,1.07818 c -2.21827,2.12921 -4.28446,3.22661 -7.54424,4.00675 -5.19108,1.24234 -9.56973,-0.17728 -13.48622,-4.37246 l -1.35773,-1.45435 -1.25817,1.22323 c -0.69203,0.67278 -1.79335,1.55716 -2.44734,1.96529 -5.5087,3.43784 -13.82846,1.38948 -18.28199,-4.50114 -0.63772,-0.84351 -1.2263,-1.55479 -1.30799,-1.58065 -0.0814,-0.0257 -0.57657,0.55185 -1.09974,1.28379 -1.28342,1.79544 -3.64005,3.70332 -5.94533,4.81312 -5.6851,2.73692 -10.80348,2.09789 -15.15264,-1.89167 l -1.46143,-1.34062 -2.03787,2.04045 c -2.92544,2.9299 -5.89179,4.27365 -9.43349,4.27365 -3.47515,0 -8.0398,-1.84601 -10.70894,-4.33089 -0.87448,-0.8141 -1.6325,-1.35528 -1.68451,-1.20264 -0.46869,1.37598 -2.1131,4.22613 -3.01041,5.21775 -2.3819,2.6324 -5.00636,3.7306 -8.94782,3.74415 -3.15336,0.01 -5.20601,-0.58537 -7.65036,-2.22187 l -1.73278,-1.16014 -0.95651,1.75702 c -2.64704,4.86241 -6.32285,6.91755 -12.72826,7.1163 -2.07753,0.0644 -3.26655,-0.002 -3.94858,-0.22776 z m -9.84395,-11.59751 c -1.15164,-0.58458 -1.5748,-1.19072 -4.92636,-7.05633 -1.00628,-1.76111 -2.77517,-4.84338 -3.93087,-6.8495 -1.15568,-2.00609 -2.07034,-3.66957 -2.03258,-3.69663 0.0378,-0.0271 1.1876,-0.71742 2.55519,-1.53419 2.60259,-1.55429 3.47572,-1.83736 4.86537,-1.57737 1.24796,0.23349 2.06226,1.05686 3.58965,3.62951 0.75742,1.27578 1.40677,2.35626 1.44295,2.40103 0.0362,0.0448 1.1642,-0.59182 2.50673,-1.41466 2.15329,-1.31974 2.58273,-1.49593 3.64413,-1.49505 2.13325,0.001 2.81536,0.65864 5.5108,5.30642 1.01536,1.75078 1.16206,2.17232 1.16206,3.33909 0,1.07885 -0.12037,1.49121 -0.62635,2.147 -0.60434,0.78316 -9.39115,6.56719 -10.77198,7.09083 -0.99,0.37538 -1.84015,0.29284 -2.98874,-0.29015 z m 3.94281,-1.51755 c 1.20924,-1.20605 1.75362,-2.52044 1.75362,-4.23404 0,-2.37169 -1.29702,-4.39972 -3.43257,-5.3673 -1.84635,-0.83651 -5.64128,-0.34373 -5.24844,0.68156 0.29391,0.7671 5.71655,9.77024 5.88919,9.77781 0.0939,0.002 0.56093,-0.38201 1.0382,-0.85803 z m 185.36629,1.80141 c -1.43916,-0.60432 -10.11434,-6.34499 -10.6589,-7.05344 -0.79154,-1.02967 -0.97296,-2.75211 -0.40704,-3.86428 0.22678,-0.4456 1.09725,-1.95037 1.93456,-3.34401 1.78489,-2.97094 2.58541,-3.61605 4.48713,-3.61605 1.06985,0 1.48993,0.173 3.64632,1.50224 1.34041,0.82624 2.46808,1.46284 2.50591,1.41468 0.038,-0.0483 0.63765,-1.04826 1.3328,-2.22231 0.69523,-1.17407 1.48863,-2.3886 1.76304,-2.69892 1.04353,-1.18005 3.06296,-1.55314 4.49416,-0.83024 0.58586,0.29593 4.52782,2.58119 4.8695,2.82296 0.0785,0.0555 -3.81621,6.8846 -7.26459,12.73781 -2.68771,4.5622 -3.25681,5.15177 -5.12725,5.312 -0.54524,0.0469 -1.25426,-0.0255 -1.57564,-0.16054 z m 3.28217,-5.94625 c 1.45464,-2.42956 2.71192,-4.59151 2.79379,-4.80432 0.21508,-0.5587 -1.23015,-1.09711 -2.92753,-1.09069 -3.29785,0.0127 -5.76411,2.4966 -5.76411,5.80588 0,1.75046 0.61159,3.1931 1.82307,4.29979 0.69545,0.63538 0.93769,0.74137 1.15497,0.50537 0.15144,-0.16436 1.46507,-2.28644 2.91981,-4.71603 z m -172.61559,-3.90655 c -3.87911,-1.67582 -4.33243,-7.10846 -0.78063,-9.35502 2.11504,-1.33778 4.45675,-1.1466 6.35365,0.51871 1.98032,1.73857 2.36251,4.47476 0.94451,6.76225 -1.29736,2.09288 -4.2782,3.04145 -6.51753,2.07406 z m 148.02909,-0.77925 c -1.79233,-0.81202 -2.96284,-2.69735 -2.96284,-4.77228 0,-2.99917 2.2231,-5.23531 5.21891,-5.24959 1.70818,-0.009 2.96497,0.58363 4.13512,1.94712 2.17365,2.53276 1.30816,6.49316 -1.76005,8.05441 -1.18573,0.60328 -3.32366,0.61268 -4.63114,0.0207 z m -135.91923,-7.44591 c -0.44131,-0.29661 -1.02527,-0.86917 -1.2977,-1.27235 -0.64485,-0.95435 -1.88644,-6.90046 -1.6913,-8.09978 0.31248,-1.92048 1.68124,-2.92376 4.78399,-3.50661 1.24194,-0.23329 2.38397,-0.50179 2.53783,-0.59664 0.20963,-0.12912 0.15099,-0.81754 -0.23378,-2.744224 -0.64092,-3.209591 -0.63722,-3.762688 0.0331,-4.942981 0.74893,-1.31889 1.88462,-1.841024 5.68481,-2.613585 3.19938,-0.650427 3.27796,-0.654939 4.34419,-0.248805 1.63546,0.622939 2.16727,1.501573 2.89507,4.783146 0.34427,1.552268 0.65855,2.860555 0.69838,2.907275 0.0398,0.0468 1.09835,-0.14 2.35224,-0.41506 3.74069,-0.820508 5.06083,-0.57919 6.34737,1.16024 0.58388,0.789434 1.94088,6.963674 1.78738,8.132534 -0.14502,1.10477 -1.14424,2.45779 -2.14642,2.90652 -0.72459,0.32443 -11.73615,2.73469 -12.34105,2.70128 -0.16436,-0.009 0.18269,-0.16567 0.7713,-0.34794 3.22895,-0.99998 4.9495,-4.84902 3.54794,-7.93709 -1.04913,-2.31158 -2.78246,-3.42512 -5.33154,-3.42512 -1.9675,0 -3.14566,0.51769 -4.44655,1.95381 -1.10976,1.22514 -1.452,2.33178 -1.33886,4.32899 0.0757,1.33855 0.21917,1.80849 0.80514,2.64006 1.00116,1.42071 2.34038,2.28218 4.10583,2.64113 l 1.50368,0.30573 -5.30872,1.118 c -6.05527,1.27518 -6.92363,1.33673 -8.06221,0.57147 z m 113.62683,-1.91565 c -8.10328,-1.74296 -11.54411,-2.57907 -11.9949,-2.91474 -1.83999,-1.37012 -2.02278,-2.57621 -1.05196,-6.93991 0.7398,-3.325024 1.09448,-4.053084 2.4095,-4.945714 0.98535,-0.668839 2.26427,-0.684022 4.99649,-0.0593 1.11178,0.25423 2.14331,0.46493 2.29221,0.46828 0.14928,0.004 0.34276,-0.39416 0.43068,-0.88336 0.61241,-3.407318 1.14955,-5.077782 1.88192,-5.852234 1.25059,-1.322487 2.20864,-1.440536 5.78457,-0.712743 3.7284,0.758805 4.90283,1.242293 5.53711,2.279488 0.78277,1.279963 0.82133,2.1535 0.22346,5.060509 -0.30561,1.485854 -0.48771,2.769294 -0.40472,2.852044 0.083,0.0828 1.2562,0.38911 2.60709,0.6808 2.8029,0.60512 3.23878,0.79732 4.08586,1.80135 0.97065,1.15048 1.01778,2.0902 0.28516,5.68292 -0.96989,4.75587 -1.69918,5.75363 -4.28711,5.865 -1.09163,0.047 -4.13746,-0.52012 -12.79545,-2.3824 z m 3.6199,-0.29052 c 1.57929,-0.46774 3.33971,-2.1353 3.7661,-3.56746 0.38555,-1.29481 0.36874,-3.24058 -0.0364,-4.20742 -0.46832,-1.11793 -1.73054,-2.47033 -2.86097,-3.06549 -1.35419,-0.71291 -3.91876,-0.7167 -5.25446,-0.009 -4.61881,2.45159 -4.09133,9.33247 0.83239,10.85729 1.4171,0.43888 2.04605,0.43724 3.55325,-0.009 z m -30.19398,0.01 c -1.2261,-0.37703 -2.43814,-1.45314 -3.10503,-2.75692 -0.59216,-1.15766 -0.59826,-3.30504 -0.0126,-4.58987 1.67794,-3.68375 6.95345,-4.00113 9.2395,-0.55583 0.84208,1.26914 1.05105,3.72554 0.42267,4.96907 -0.70001,1.38541 -2.02877,2.57002 -3.30755,2.94877 -1.41211,0.41824 -1.83316,0.41627 -3.23651,-0.015 z m -50.59455,-0.61214 c -1.83413,-0.90549 -2.90784,-2.7256 -2.90784,-4.92916 0,-1.84365 1.17779,-3.67595 2.94312,-4.57865 1.181,-0.60392 3.19919,-0.6634 4.45406,-0.13133 2.26693,0.96117 3.62375,3.59994 3.08519,6.00006 -0.33677,1.50104 -1.60206,3.07034 -2.97799,3.69367 -1.33075,0.60286 -3.31243,0.57931 -4.59654,-0.0546 z m 14.06934,-7.30258 c -0.40699,-0.24752 -0.99559,-0.80748 -1.30796,-1.24435 -0.53291,-0.7452 -0.57259,-1.02912 -0.6412,-4.589324 -0.0696,-3.605244 -0.045,-3.847719 0.4882,-4.849829 0.91393,-1.717586 2.00409,-2.147183 5.44879,-2.147183 h 2.81634 v -2.991829 c 0,-2.647928 0.0608,-3.099147 0.52602,-3.925306 0.94293,-1.67328 1.72584,-1.965267 5.52478,-2.060438 3.53147,-0.08842 4.62194,0.09342 5.71862,0.95378 1.1847,0.929403 1.53712,2.125513 1.5429,5.236842 l 0.007,2.786951 h 2.68446 c 2.3115,0 2.8316,0.07415 3.74364,0.533671 2.02165,1.018622 2.56987,2.810793 2.30822,7.546135 -0.15574,2.82092 -0.57527,3.81365 -1.95104,4.61778 -0.99904,0.58395 -1.01059,0.58483 -7.28181,0.55698 -4.10262,-0.0181 -5.88143,-0.0948 -5.12864,-0.2208 2.22786,-0.37286 4.17092,-2.25915 4.65733,-4.52121 0.33834,-1.573474 0.11414,-2.797994 -0.78713,-4.296593 -2.40015,-3.991499 -8.29782,-3.622036 -10.28998,0.644647 -1.6043,3.436076 0.48237,7.426256 4.27473,8.174136 0.6336,0.12509 -1.28643,0.20483 -5.30954,0.22085 -5.79574,0.0231 -6.36153,-0.01 -7.042,-0.42489 z M 58.528614,352.50315 c -0.472755,-4.74795 -0.705811,-6.4668 -1.117555,-8.24228 -0.593923,-2.56098 -1.627092,-5.69248 -1.878147,-5.69248 -0.419476,0 -4.146122,2.23659 -6.004702,3.60378 -1.082486,0.79629 -2.999931,2.45444 -4.261002,3.6848 -1.395487,1.36156 -2.356612,2.13411 -2.455813,1.97399 -0.269709,-0.43521 -5.358427,-11.73239 -5.358427,-11.89588 0,-0.0832 1.203928,-0.27981 2.675405,-0.43664 1.471474,-0.15696 3.745569,-0.49742 5.053536,-0.75669 2.986942,-0.59205 7.491132,-2.06604 7.491132,-2.45139 0,-0.38634 -2.429979,-4.2341 -3.524674,-5.58132 -0.477035,-0.58699 -1.845313,-2.13959 -3.040617,-3.45009 l -2.173272,-2.38287 6.093428,-2.74074 6.093433,-2.74075 0.180837,1.44714 c 0.480097,3.8421 0.955723,6.71016 1.381884,8.33289 0.58197,2.21609 1.162167,3.965 1.398526,4.2156 0.415883,0.44105 5.077645,-2.68196 8.874106,-5.94496 2.439256,-2.09647 2.570623,-2.17527 2.771947,-1.66248 0.116342,0.2961 1.295437,2.98046 2.620427,5.96526 1.325004,2.98484 2.362293,5.47364 2.305099,5.53072 -0.05718,0.0569 -1.211495,0.20622 -2.565095,0.33135 -1.353603,0.12508 -3.425507,0.38087 -4.604237,0.5682 -2.173749,0.34539 -6.272757,1.43041 -6.593553,1.74531 -0.234857,0.23037 2.221173,4.43622 3.956022,6.7743 0.765699,1.03195 2.18397,2.7638 3.151717,3.84866 l 1.75952,1.97248 -0.778723,0.33058 c -0.428305,0.18231 -3.094342,1.35851 -5.924557,2.6147 -2.830213,1.25623 -5.20363,2.28401 -5.274255,2.28401 -0.07056,0 -0.184186,-0.56035 -0.252378,-1.2452 z m 376.548606,-1.15364 c -2.94296,-1.31295 -5.59468,-2.48289 -5.89272,-2.59995 -0.51733,-0.20287 -0.44012,-0.33151 1.70428,-2.83397 2.40812,-2.81024 4.52408,-5.77859 5.95484,-8.35366 l 0.88873,-1.59946 -0.67362,-0.2556 c -2.33087,-0.88444 -6.72076,-1.74978 -10.62451,-2.09429 -1.41831,-0.12507 -2.62649,-0.27525 -2.68502,-0.33358 -0.0584,-0.0581 0.92752,-2.44095 2.19104,-5.29474 1.26352,-2.85381 2.44869,-5.54102 2.63373,-5.97149 l 0.33642,-0.78276 1.83487,1.64002 c 3.61988,3.23553 9.13117,6.99032 9.57346,6.52231 0.68564,-0.72556 2.18492,-7.21736 2.61914,-11.34059 0.15142,-1.43497 0.29028,-2.62176 0.30931,-2.63728 0.0192,-0.0167 2.76908,1.21204 6.11124,2.72807 l 6.07654,2.75637 -2.47808,2.72719 c -1.36294,1.49996 -2.94623,3.38003 -3.5184,4.17807 -1.33483,1.86154 -2.70841,4.13641 -2.70841,4.48544 0,0.32876 3.6357,1.59273 6.42097,2.23235 1.11176,0.25529 3.51967,0.64486 5.35082,0.86574 1.83117,0.22082 3.3669,0.43276 3.41273,0.47092 0.0759,0.0629 -4.31374,9.96685 -5.12556,11.56493 l -0.34149,0.67214 -2.31143,-2.23702 c -1.27127,-1.23036 -3.19296,-2.88887 -4.2704,-3.68565 -1.86014,-1.37559 -5.57281,-3.60463 -6.0039,-3.60463 -0.292,0 -1.55127,4.06353 -2.10367,6.78839 -0.36507,1.80065 -0.95079,6.75612 -0.97096,8.21371 -10e-4,0.0979 -0.0826,0.17536 -0.18085,0.17201 -0.0981,-0.001 -2.58618,-1.08008 -5.52915,-2.39302 z m 5.58842,-90.5786 c -0.0809,-0.13085 -0.25234,-1.91839 -0.381,-3.97288 -0.12895,-2.05447 -0.38936,-4.69605 -0.57939,-5.87013 -0.69577,-4.29904 -0.35056,-4.79349 1.76207,-2.52364 1.32365,1.42226 1.38418,1.4563 2.58732,1.4563 1.54184,0 2.7996,-0.4149 6.1908,-2.04222 1.85927,-0.89216 2.74509,-1.45024 2.88514,-1.81771 0.24976,-0.65498 -0.62413,-9.76327 -1.0178,-10.60838 -0.3923,-0.84247 -2.34395,-1.54526 -5.66711,-2.0407 -2.32309,-0.34635 -2.94305,-0.36574 -3.77276,-0.11805 -1.31406,0.39266 -2.05698,1.23963 -2.5005,2.85074 -0.54683,1.98627 -0.76011,2.3911 -1.25966,2.3911 -0.62857,0 -0.68224,-0.23062 -0.86197,-3.70275 -0.0873,-1.68139 -0.30974,-3.96427 -0.49496,-5.07317 -0.4259,-2.54967 -0.42244,-2.8289 0.0371,-3.00487 0.24825,-0.095 0.7929,0.26057 1.6052,1.04761 0.67634,0.65525 1.45684,1.30679 1.73448,1.44788 0.27763,0.14092 9.11398,2.40329 19.63639,5.02707 10.52236,2.62381 19.2734,4.85801 19.44672,4.96482 0.17322,0.10696 0.25889,0.34054 0.18996,0.51932 -0.0686,0.17895 -7.38823,3.72909 -16.26546,7.88957 -20.751,9.72536 -20.68146,9.69059 -21.25939,10.63592 -0.2573,0.42089 -0.46822,1.01243 -0.46869,1.31453 0,0.30211 -0.11146,0.75568 -0.24701,1.008 -0.26065,0.4858 -1.05238,0.62059 -1.29978,0.22128 z m 22.8672,-18.78312 c 4.97537,-2.37852 6.10173,-3.04267 5.75183,-3.39166 -0.0532,-0.053 -2.78698,-0.74208 -6.07533,-1.5315 -5.83541,-1.40084 -7.51132,-1.66243 -7.78815,-1.21576 -0.11817,0.19117 0.31201,5.00034 0.72031,8.05072 0.13783,1.02982 0.14332,1.03524 0.95983,0.90312 0.45164,-0.0729 3.34577,-1.33978 6.43151,-2.81492 z M 19.062057,256.81805 c -0.252554,-0.2519 -0.185441,-1.46598 0.201,-3.63689 0.19739,-1.1088 0.454191,-3.6012 0.570675,-5.53856 0.116499,-1.93734 0.326499,-3.63687 0.466684,-3.77668 0.463591,-0.46233 1.342007,0.17032 1.647264,1.1866 0.46186,1.53751 0.945165,1.80884 3.14809,1.76749 1.048271,-0.0191 2.601511,-0.14664 3.451657,-0.28204 2.658138,-0.42356 23.512747,-4.98438 23.71541,-5.18652 0.105951,-0.10573 0.05421,-0.30127 -0.114768,-0.43479 -0.370812,-0.29289 -16.738761,-8.13017 -19.094613,-9.1429 -3.691544,-1.58685 -6.573124,-2.00342 -8.191608,-1.18428 -0.757869,0.38362 -1.334882,1.21119 -2.034374,2.91795 -0.162968,0.39751 -0.425015,0.58019 -0.832363,0.58019 -0.519902,0 -0.60407,-0.1167 -0.670647,-0.92806 -0.04187,-0.51044 0.09185,-1.91123 0.297268,-3.11284 0.205383,-1.20157 0.373379,-3.08502 0.373379,-4.18537 0,-3.07235 0.683817,-3.58467 2.128873,-1.5951 0.396596,0.54607 1.123261,1.28292 1.614795,1.63742 0.491533,0.35453 8.652366,4.35588 18.135198,8.89189 9.482807,4.53595 17.428748,8.41019 17.657646,8.60942 0.549965,0.47873 0.525324,0.68085 -0.135502,1.11274 -0.30348,0.19831 -8.950109,2.3299 -19.21474,4.73679 -10.264627,2.40694 -18.978921,4.49569 -19.365117,4.64164 -0.935602,0.35362 -1.719221,1.10786 -2.275903,2.19058 -0.424999,0.82654 -1.065131,1.14328 -1.478178,0.73132 z m 40.66959,-28.49398 c -0.212992,-0.23468 -0.551198,-0.89011 -0.751515,-1.45639 -0.59429,-1.67995 -1.233086,-2.50452 -2.453523,-3.16701 -0.831461,-0.45135 -4.459653,-1.39508 -13.026261,-3.38825 -9.664196,-2.24852 -12.323918,-2.78534 -14.29256,-2.88479 -2.153545,-0.1089 -2.536974,-0.065 -3.496916,0.39838 -0.692402,0.33431 -1.383517,0.94448 -1.931599,1.70537 -0.710385,0.98617 -0.960969,1.17231 -1.495124,1.11068 -0.856401,-0.0985 -0.919066,-0.60589 -0.328721,-2.65888 0.26644,-0.9265 0.61191,-2.48503 0.767738,-3.46345 0.400254,-2.5129 0.538506,-2.78249 1.580166,-3.08055 0.496235,-0.14185 7.696627,-3.16429 16.000864,-6.71618 14.725931,-6.29859 16.002437,-6.93152 14.861474,-7.36819 -1.009187,-0.38624 -20.979454,-4.89347 -21.681588,-4.89347 -1.262477,0 -2.307793,0.56544 -3.310116,1.79045 -2.030287,2.48141 -2.108617,2.55042 -2.687281,2.36728 -0.642772,-0.20335 -0.640803,-0.22393 0.400232,-4.15773 0.39702,-1.50018 0.857069,-3.5815 1.022319,-4.62511 0.462481,-2.92059 1.295859,-3.34267 1.97816,-1.00178 0.471717,1.61833 1.064833,2.37139 2.360467,2.99689 0.563724,0.27219 8.600223,2.24544 17.858885,4.38497 9.258662,2.13958 16.952841,4.0087 17.098169,4.15362 0.193755,0.19307 0.139927,0.38173 -0.202155,0.70671 -0.256509,0.24376 -8.27856,3.83017 -17.826763,7.9698 -9.548226,4.13972 -17.516342,7.67401 -17.706929,7.85407 -0.220263,0.20789 -0.263585,0.40931 -0.118951,0.55227 0.125121,0.12368 4.882835,1.30773 10.572527,2.63126 7.41877,1.7259 10.950292,2.44196 12.485209,2.53178 3.439722,0.20119 4.916938,-0.44299 6.084259,-2.65339 0.60707,-1.14953 1.521553,-1.65329 1.898124,-1.04558 0.232225,0.37475 0.209904,0.49155 -0.856766,4.48126 -0.435964,1.6307 -0.914581,3.76538 -1.063584,4.74376 -0.149067,0.9784 -0.323702,1.96568 -0.388198,2.19399 -0.152034,0.538 -0.856804,0.53185 -1.350083,-0.0142 z m 384.973293,-3.08694 c -3.298,-1.3095 -6.58719,-4.17596 -8.15217,-7.10442 -1.77957,-3.3299 -2.31537,-8.17523 -1.26703,-11.45727 1.33221,-4.17087 5.13063,-7.84047 10.38759,-10.0353 3.83387,-1.60062 6.67535,-2.12248 11.40163,-2.09385 9.0795,0.055 15.81155,3.7784 18.13959,10.03266 1.16789,3.13756 1.10132,6.49218 -0.21004,10.57488 -0.90876,2.82935 -0.86497,3.18618 0.44149,3.59846 0.55584,0.17561 1.01065,0.45152 1.01065,0.61349 0,0.3081 -10.84365,3.21826 -11.99172,3.21826 -1.22167,0 -0.70284,-0.802 1.46827,-2.26977 3.85895,-2.60881 6.38628,-5.55191 7.4432,-8.66766 0.71802,-2.11679 0.57861,-4.78191 -0.34418,-6.58015 -1.88934,-3.68174 -6.46551,-5.79003 -12.50903,-5.76314 -8.71408,0.0387 -17.64536,4.57671 -20.49671,10.41424 -0.72428,1.48288 -0.78177,1.77491 -0.78459,3.98431 -0.002,2.27457 0.0371,2.46536 0.87547,4.15076 1.13386,2.28002 2.71559,3.81783 5.89917,5.73536 1.37335,0.82726 2.49704,1.66026 2.49704,1.85108 0,0.63603 -1.96021,0.53205 -3.80877,-0.20192 z m -11.87772,-24.61747 c -0.19879,-0.19831 -0.53139,-0.96742 -0.73952,-1.7095 -0.77622,-2.76805 -2.215,-7.33882 -2.87165,-9.1231 -0.58798,-1.59758 -0.63103,-1.87459 -0.32199,-2.07175 0.512,-0.32673 0.52184,-0.32308 1.78004,0.6546 1.0614,0.82471 1.25888,0.88904 2.71447,0.88418 1.3872,-0.005 3.15994,-0.52445 15.244,-4.47016 7.52087,-2.4557 14.06299,-4.68064 14.53806,-4.94431 1.24664,-0.69196 1.87107,-1.93766 1.87107,-3.73273 0,-1.65068 0.28614,-2.3833 0.93081,-2.3833 0.52885,0 0.76445,0.54441 1.59087,3.67531 0.34421,1.30393 1.10924,3.65208 1.70008,5.21814 1.24055,3.28812 1.40024,4.46904 0.61958,4.58005 -0.34683,0.049 -0.67557,-0.16005 -1.0295,-0.65585 -0.65509,-0.91762 -1.64081,-1.43267 -2.74198,-1.43267 -0.47096,0 -3.01101,0.70204 -5.64466,1.56006 -2.6336,0.85805 -8.91535,2.89843 -13.95941,4.53415 -5.04408,1.63584 -9.65265,3.21793 -10.24121,3.51597 -2.0497,1.03782 -2.69977,2.29313 -2.44792,4.72678 0.10342,0.99973 0.0541,1.27254 -0.25058,1.3892 -0.20861,0.0797 -0.54184,-0.0167 -0.74056,-0.21507 z M 68.621412,193.18775 c -0.269781,-0.26908 -0.490498,-0.69907 -0.490498,-0.95554 0,-0.85737 -0.789034,-2.12955 -1.689337,-2.72381 -0.508625,-0.33568 -6.896842,-2.5495 -14.880461,-5.15672 -15.071931,-4.92211 -15.764914,-5.08734 -17.122842,-4.08343 -0.369279,0.27303 -1.029848,0.96682 -1.467902,1.54173 -0.944723,1.23986 -1.544681,1.58819 -2.035514,1.18194 -0.3908,-0.32352 -0.25931,-0.88992 0.912734,-3.9316 0.351876,-0.91321 1.120914,-3.3147 1.708995,-5.33673 0.588064,-2.02198 1.159476,-3.76703 1.269798,-3.8778 0.443525,-0.44552 1.182372,0.10463 1.324055,0.98568 0.282645,1.75777 0.39089,2.02715 1.068122,2.6581 0.699915,0.65214 1.700303,1.0103 13.789776,4.9373 2.812142,0.9135 7.467341,2.43543 10.344894,3.38213 7.488562,2.46374 8.655638,2.41983 10.525027,-0.39594 0.860152,-1.29558 1.560998,-1.53042 1.674222,-0.561 0.0389,0.33316 -0.405761,1.88084 -0.988156,3.43917 -1.008906,2.69963 -1.90372,5.48319 -2.582236,8.03263 -0.358737,1.34788 -0.674434,1.54834 -1.360677,0.86389 z M 426.84425,182.86709 c -0.0842,-0.21867 -0.0446,-0.6312 0.0882,-0.91637 0.13302,-0.28521 4.26542,-7.92339 9.18354,-16.97374 4.91816,-9.05032 8.97043,-16.6246 9.00507,-16.83166 0.0349,-0.20694 -0.0995,-0.41008 -0.29796,-0.45115 -0.532,-0.11024 -19.58483,8.81883 -21.44001,10.04757 -0.9763,0.64671 -1.87421,1.48223 -2.33363,2.17176 -0.7158,1.07413 -0.74374,1.20708 -0.67276,3.2049 0.0589,1.65174 8e-5,2.13082 -0.28231,2.30891 -0.19593,0.12368 -0.43421,0.22632 -0.52929,0.22821 -0.31575,0.007 -0.86199,-1.03453 -2.05117,-3.90995 -0.64739,-1.56539 -1.67834,-3.73162 -2.29102,-4.81374 -0.90166,-1.59249 -1.05923,-2.03326 -0.8268,-2.3126 0.43442,-0.52212 1.14198,-0.41808 2.34838,0.34534 1.64398,1.04028 2.89111,1.33953 4.26479,1.02331 1.15605,-0.26615 21.75119,-9.75816 23.93693,-11.0322 3.12206,-1.81979 4.16174,-3.29335 4.16174,-5.89827 0,-1.39249 0.0555,-1.57267 0.55699,-1.80045 0.74628,-0.33914 1.02694,-0.11987 1.45157,1.13542 0.1969,0.58169 0.97579,2.25559 1.73113,3.71975 l 1.3733,2.66206 -0.45275,0.77714 c -2.88018,4.9438 -16.31311,29.57798 -16.31311,29.91605 0,0.36496 0.12389,0.42508 0.65399,0.31772 0.92856,-0.18804 19.05078,-8.65077 19.94288,-9.31304 1.18836,-0.88222 1.58582,-2.00455 1.55263,-4.38464 -0.0215,-1.53842 0.0589,-2.13857 0.31447,-2.35014 0.72259,-0.59811 1.13485,-0.14403 2.25364,2.48268 0.61124,1.43497 1.62499,3.597 2.25278,4.80454 1.57649,3.03253 1.23405,3.66295 -1.11391,2.05057 -1.14993,-0.78968 -1.34937,-0.84664 -2.66967,-0.76247 -1.28802,0.0823 -2.95421,0.80316 -17.12258,7.40978 -8.63262,4.0253 -15.88168,7.36905 -16.10894,7.43055 -0.24399,0.0662 -0.47603,-0.0514 -0.56636,-0.28595 z M 59.212904,168.01842 c -9.679015,-0.88788 -18.111846,-1.62179 -18.739624,-1.63093 -1.247835,-0.0167 -2.245621,0.39758 -3.436329,1.43196 -0.779377,0.67704 -1.338541,0.70115 -1.582063,0.0682 -0.07285,-0.18924 0.492133,-1.54182 1.255369,-3.00583 0.763249,-1.464 1.782523,-3.67579 2.265044,-4.9151 1.352194,-3.47286 1.521401,-3.79499 1.993455,-3.79499 0.700408,0 1.002658,0.49889 1.002658,1.65494 0,2.68418 1.096845,2.981 17.518433,4.74055 11.867662,1.2716 12.446083,1.31685 12.446083,0.97326 0,-0.33015 -15.404535,-15.05892 -17.028918,-16.28184 -1.558971,-1.17373 -3.372081,-2.09395 -4.567455,-2.31816 -1.127783,-0.21149 -2.374404,0.38026 -3.503152,1.66303 -0.781166,0.88778 -1.059867,1.0615 -1.486327,0.92651 -0.773373,-0.24476 -0.661836,-0.81935 0.674699,-3.47573 0.659774,-1.31125 1.523579,-3.27721 1.919591,-4.3687 0.395993,-1.09155 0.859285,-2.09991 1.029495,-2.2408 0.466951,-0.38652 1.007937,-0.0654 1.309341,0.77712 0.802109,2.24213 1.626339,3.26822 5.957029,7.41569 2.419755,2.31742 5.897773,5.66527 7.728936,7.43975 1.831183,1.77449 6.192088,5.98399 9.690911,9.35449 3.634396,3.50111 6.36152,6.30894 6.36152,6.54988 0,0.55115 -0.48064,0.71615 -1.981414,0.68029 -0.675987,-0.0167 -9.148272,-0.75579 -18.827282,-1.64367 z m 25.62476,-12.59341 c -0.179665,-0.17944 -0.225383,-0.78208 -0.133565,-1.76223 l 0.139546,-1.48979 -1.162446,-1.19296 c -1.393928,-1.43056 -24.868154,-16.7322 -26.229795,-17.0979 -1.189427,-0.31945 -2.164407,-0.007 -3.719783,1.18905 -1.324865,1.01941 -2.10962,1.15263 -2.560665,0.43468 -0.193898,-0.30865 0.569972,-1.59792 3.794313,-6.40406 2.2204,-3.30967 4.99196,-7.5981 6.159038,-9.52986 2.050263,-3.39364 2.790424,-4.43346 3.155743,-4.43346 0.374124,0 7.034393,4.17533 7.272775,4.55931 0.433924,0.69897 -0.167704,1.06769 -1.106434,0.67801 -2.66449,-1.10611 -3.467286,-1.27715 -4.560767,-0.97183 -1.496674,0.41794 -2.759557,1.59382 -4.417995,4.11364 -1.683284,2.55756 -2.100941,3.67721 -1.699454,4.55603 0.175096,0.38347 1.884222,1.64982 4.734672,3.50822 6.126025,3.99404 6.17681,4.02297 6.791587,3.86908 0.642138,-0.16075 3.005328,-3.66127 3.274107,-4.8499 0.245702,-1.08649 -0.251813,-2.65806 -1.34056,-4.23472 -0.896169,-1.29777 -0.970997,-2.17273 -0.160311,-1.87432 0.925384,0.34066 11.284322,6.68348 11.473287,7.02516 0.114927,0.20766 0.110866,0.5183 -0.0087,0.71154 -0.181269,0.29198 -0.452905,0.25689 -1.826464,-0.23611 -2.059496,-0.73914 -3.832603,-0.78299 -4.746498,-0.11718 -0.750119,0.54629 -3.278332,4.18042 -3.515311,5.05298 -0.10172,0.37443 -0.01061,0.72314 0.275201,1.04629 0.468004,0.53038 9.539897,6.54483 11.224218,7.44137 0.575355,0.30626 1.347516,0.55683 1.715863,0.55683 0.997607,0 2.168242,-1.17367 3.255459,-3.26382 1.34881,-2.59311 1.77701,-4.2349 1.676036,-6.42615 -0.07144,-1.55021 -0.230335,-2.11823 -1.094224,-3.91169 -1.06339,-2.20768 -1.205688,-2.7642 -0.706829,-2.7642 0.768034,0 3.3738,2.36266 4.455775,4.04005 1.013638,1.57146 1.536515,3.80056 1.202149,5.12493 -0.257811,1.02114 -2.049858,3.90858 -5.474903,8.82151 -0.939709,1.34789 -2.461285,3.72272 -3.381268,5.27738 -1.652527,2.79252 -2.099043,3.20676 -2.753294,2.55427 z m 331.421246,-5.1852 c -3.45835,-0.54428 -6.22571,-1.93939 -8.66862,-4.37019 -4.86565,-4.84156 -5.81426,-11.21943 -2.55741,-17.19486 1.63904,-3.00711 5.09256,-6.73434 8.13454,-8.77926 3.64136,-2.44785 8.64866,-4.30882 12.94707,-4.81179 8.23059,-0.96311 14.73072,3.4741 16.4249,11.21222 0.0726,0.33144 0.24248,1.57701 0.37789,2.76797 0.33195,2.92259 0.34864,2.95448 1.52566,2.90883 1.36579,-0.053 1.57369,-0.0238 1.57369,0.2189 0,0.32344 -9.47911,7.72196 -10.00479,7.80876 -0.75043,0.12418 -0.56215,-0.83308 0.47838,-2.43115 0.51554,-0.79182 1.31644,-2.24014 1.77981,-3.21854 5.5285,-11.67407 -2.62962,-19.48957 -14.86836,-14.24384 -2.8122,1.20536 -5.11942,2.79397 -7.83909,5.39746 -3.4309,3.28441 -5.62629,6.70087 -6.51675,10.14145 -1.05284,4.06754 0.5134,8.26124 3.93676,10.54126 1.95804,1.3041 3.77757,1.81632 8.29844,2.33608 1.20069,0.1378 1.56073,0.2704 1.62355,0.59693 0.17846,0.92789 -3.70611,1.58248 -6.64567,1.11986 z M 99.066715,134.25609 c -0.18599,-0.22345 -0.22421,-0.83615 -0.1172,-1.87773 0.19971,-1.94391 -0.28797,-3.06686 -2.095633,-4.82574 -2.599447,-2.52932 -20.793192,-18.1717 -21.638518,-18.60408 -1.313286,-0.67174 -2.671022,-0.5802 -4.3831,0.29548 -0.817223,0.41797 -1.628922,0.68246 -1.843042,0.6005 -0.812598,-0.311 -0.362978,-1.15991 1.82052,-3.43733 1.21176,-1.26384 3.319283,-3.68543 4.683394,-5.38132 4.767223,-5.92673 6.936804,-7.510377 10.512793,-7.673693 4.231348,-0.193257 8.57453,2.536366 10.511547,6.606349 0.670562,1.408984 0.734249,1.752464 0.739688,3.989494 0.005,1.92538 0.08201,2.49004 0.362664,2.64561 0.628046,0.3482 16.628632,4.98705 17.201652,4.98705 0.5675,0 1.40053,-0.74496 1.66369,-1.48781 0.19988,-0.56422 0.79963,-0.76583 1.22664,-0.4124 0.58372,0.48318 0.68173,1.77439 0.24084,3.17243 -0.76768,2.43423 -2.62416,3.9336 -4.87494,3.93716 -1.56754,0.001 -3.31492,-0.46217 -10.27336,-2.73188 -7.365977,-2.40265 -7.900908,-2.45388 -9.499932,-0.90986 -1.285057,1.24084 -1.723907,2.08966 -1.364341,2.63884 0.470296,0.71829 9.254133,8.21734 10.283653,8.77949 1.36746,0.74668 2.55743,0.68885 4.11512,-0.20006 1.03906,-0.59293 1.35264,-0.67836 1.63418,-0.44532 0.61062,0.50542 0.39002,0.93306 -1.50438,2.91601 -1.01903,1.06668 -2.74177,3.06014 -3.82829,4.42988 -2.655125,3.34723 -3.020905,3.65315 -3.573625,2.9889 z m -8.4558,-22.00147 c 0.881143,-0.7716 2.751358,-3.27272 3.075637,-4.11314 0.469574,-1.21694 0.566678,-2.19179 0.318966,-3.20204 -0.372377,-1.5187 -3.318192,-4.38382 -5.729287,-5.572314 -3.823175,-1.884547 -6.56728,-1.63723 -9.027527,0.813604 -1.131987,1.12766 -1.367167,1.50147 -1.365864,2.17099 9.54e-4,0.44487 0.188158,1.08814 0.416177,1.42952 0.228039,0.34137 2.608423,2.54956 5.289778,4.90708 5.420508,4.76588 5.567204,4.84036 7.02212,3.5663 z M 396.3136,128.44289 c -1.8179,-0.38073 -2.06701,-0.61143 -8.60497,-7.96772 -1.39136,-1.56541 -3.4489,-3.75112 -4.57241,-4.85706 -1.12348,-1.10599 -2.04272,-2.14895 -2.04272,-2.3177 0,-0.16866 0.25274,-0.42163 0.56159,-0.56199 0.43366,-0.19705 0.72891,-0.1689 1.29615,0.1237 1.13437,0.58505 2.4096,0.48011 3.62488,-0.29831 1.53255,-0.98161 22.14521,-20.279694 22.63886,-21.195049 0.57095,-1.058694 0.52208,-2.084109 -0.17823,-3.743938 -0.66184,-1.568305 -0.73094,-2.140952 -0.3092,-2.561609 0.6507,-0.648952 0.49163,-0.790233 5.68321,5.048646 1.62224,1.82445 4.84899,5.255694 7.17064,7.624936 2.32164,2.369284 4.2212,4.447434 4.2212,4.618114 0,0.17078 -1.32582,1.63265 -2.94619,3.24882 -2.04021,2.03474 -3.08153,2.91249 -3.38615,2.85397 -0.76562,-0.14706 -0.62428,-0.82651 0.48431,-2.32847 2.03409,-2.75584 1.73891,-4.53927 -1.32267,-7.991294 -1.81,-2.040857 -3.17836,-3.160638 -3.86087,-3.159442 -0.87153,0.0012 -1.91954,0.824585 -6.20216,4.870882 -3.39905,3.211434 -4.16946,4.057884 -4.16946,4.580724 0,0.47138 0.45692,1.12176 1.72413,2.45393 2.27957,2.39646 3.01338,2.64011 5.60541,1.86111 2.7725,-0.83317 2.89641,-0.84715 2.89641,-0.32702 0,0.66202 -9.27088,9.80381 -9.94225,9.80381 -0.77506,0 -0.65422,-0.59396 0.47139,-2.31701 1.24363,-1.90387 1.49224,-3.59314 0.71361,-4.84967 -0.54051,-0.87223 -3.91366,-4.22327 -4.23768,-4.2099 -0.11232,0.005 -0.4354,0.13799 -0.71864,0.29648 -0.87592,0.49005 -9.78695,8.93856 -10.29829,9.76383 -0.93393,1.50709 -0.55333,2.44555 1.91682,4.72649 3.36738,3.10944 6.5826,4.05087 10.4422,3.05745 2.54729,-0.65561 2.94375,-0.43897 1.60518,0.87733 -2.08152,2.04698 -5.89146,3.37287 -8.26396,2.87597 z m -20.4585,-19.869 c -0.32343,-0.21876 -1.62142,-1.28332 -2.88446,-2.36572 -1.26308,-1.08239 -3.56388,-2.8879 -5.11299,-4.01224 -4.17413,-3.029554 -4.31792,-3.197814 -3.42329,-4.005294 0.44458,-0.40124 0.53179,-0.39152 2.14047,0.23796 1.51534,0.59296 1.76896,0.6287 2.63207,0.37081 0.5253,-0.15694 1.33834,-0.62103 1.80679,-1.03125 1.07349,-0.940041 18.40208,-23.076126 18.718,-23.910992 0.40206,-1.06239 0.0215,-1.700694 -1.91305,-3.219061 -2.53998,-1.992194 -3.37305,-2.460671 -4.37743,-2.461707 -1.14854,-0.0012 -2.18881,0.45783 -3.92272,1.730903 -1.83413,1.346633 -2.42328,1.656622 -2.8431,1.495939 -0.18614,-0.07122 -0.33814,-0.306793 -0.33814,-0.523573 0,-0.371147 6.76474,-7.685073 7.10804,-7.685073 0.0881,0 2.63728,2.016378 5.66495,4.48084 3.02773,2.464464 8.01801,6.364733 11.08961,8.667269 3.07154,2.302537 5.7005,4.325671 5.8421,4.495841 0.1952,0.234244 -0.25204,1.121281 -1.83979,3.651086 -2.47891,3.949756 -2.5828,4.083938 -3.16142,4.083938 -0.71003,0 -0.6712,-0.654073 0.16436,-2.768122 0.63753,-1.613243 0.73633,-3.030133 0.28109,-4.02778 -0.338,-0.740573 -5.00167,-4.524171 -5.84717,-4.74372 -0.36262,-0.09415 -0.77328,0.01769 -1.18178,0.321842 -0.59846,0.445647 -16.05849,20.019318 -17.75882,22.48415 -1.66753,2.417284 -1.66476,4.450904 0.01,6.880484 0.94175,1.3667 0.99525,1.66585 0.35859,2.00566 -0.58006,0.30963 -0.51667,0.31762 -1.21124,-0.15214 z m -259.41676,-3.37777 c -2.34258,-1.94607 -4.30884,-3.6805 -4.36946,-3.85426 -0.17655,-0.50627 0.0722,-0.90897 0.56132,-0.90897 0.24907,0 1.07389,0.42281 1.83292,0.93955 4.45507,3.03297 9.0854,4.05073 11.93912,2.62421 2.46934,-1.23438 3.65558,-3.03915 3.66982,-5.583304 0.007,-1.410987 -0.1089,-1.903645 -0.76933,-3.242743 -0.9877,-2.002951 -2.89247,-3.808464 -4.4235,-4.192963 -1.64611,-0.413414 -2.51193,-0.335866 -7.63982,0.684183 -6.17104,1.227586 -7.44189,1.342621 -9.37519,0.848634 -1.8317,-0.468012 -2.81168,-1.038464 -4.50685,-2.623451 -1.55005,-1.449256 -2.9673,-3.480061 -3.791955,-5.433451 -0.51735,-1.225464 -0.61565,-1.826549 -0.62571,-3.825756 -0.0141,-2.812171 0.39874,-3.942281 2.105005,-5.761622 1.25357,-1.336598 3.0155,-2.267622 5.28483,-2.792537 2.11954,-0.490244 2.342,-0.630585 2.79687,-1.764475 0.21261,-0.529952 0.55582,-1.028354 0.76269,-1.107538 0.26689,-0.102194 1.3543,0.874781 3.74432,3.363818 3.6411,3.791976 4.22589,4.51839 4.03567,5.012841 -0.20837,0.541622 -0.73943,0.373585 -3.1269,-0.98939 -4.67684,-2.669963 -7.96937,-2.967061 -10.90133,-0.983683 -1.59924,1.08183 -2.53687,2.889695 -2.37396,4.577244 0.20782,2.1525 1.81053,4.527012 3.60417,5.339695 1.37953,0.625049 2.71172,0.548744 7.56514,-0.433317 5.2197,-1.056171 8.75696,-1.205842 10.74855,-0.454841 3.84609,1.45028 7.8982,6.192402 9.04125,10.58078 1.20481,4.625472 -0.89455,9.293846 -5.04095,11.209716 -2.0236,0.93502 -5.65554,2.30995 -6.10182,2.30995 -0.21209,0 -2.30231,-1.59223 -4.6449,-3.53832 z m 21.16865,-8.25109 c -0.15839,-0.282354 -0.0902,-0.750378 0.22601,-1.5505 0.55398,-1.40172 0.56626,-2.022317 0.0648,-3.272293 -0.62814,-1.565744 -17.0716,-24.918695 -18.07237,-25.666329 -1.02247,-0.763842 -2.36908,-0.856682 -4.23556,-0.291975 -1.41675,0.428646 -2.09367,0.279049 -1.99096,-0.439964 0.0512,-0.358341 0.9401,-1.086122 2.94455,-2.410792 1.57919,-1.043622 3.96489,-2.724683 5.30155,-3.735695 1.33665,-1.011013 2.57312,-1.838196 2.74769,-1.838196 0.17457,0 0.4456,0.154012 0.60229,0.34233 0.22725,0.273097 0.161,0.553171 -0.32759,1.384658 -0.69167,1.177159 -0.77129,2.178537 -0.26852,3.378598 0.52808,1.26061 17.15027,24.876902 18.08643,25.69672 1.26291,1.105925 2.4456,1.375865 3.84962,0.878609 1.80741,-0.640159 2.24697,-0.704122 2.4613,-0.358219 0.34229,0.552365 -0.17992,1.087768 -2.44174,2.503414 -2.63373,1.648439 -5.06986,3.351049 -6.80403,4.755366 -1.38447,1.121134 -1.7972,1.241354 -2.14346,0.624268 z m 217.49243,-4.068464 c -1.77688,-1.286024 -4.19973,-2.91039 -5.38413,-3.609731 -1.18439,-0.69933 -2.1535,-1.386915 -2.1535,-1.527939 0,-0.533158 0.60929,-0.825647 1.71993,-0.825647 1.51687,0 2.49691,-0.437084 3.52292,-1.57117 1.41992,-1.569488 16.95545,-24.81728 17.20392,-25.744378 0.30923,-1.153658 -0.0775,-2.405841 -1.17767,-3.814378 -0.90722,-1.161354 -1.02963,-2.126951 -0.28752,-2.268025 0.22848,-0.04341 1.47873,0.716415 2.81998,1.714025 1.32509,0.985646 3.74706,2.620708 5.3821,3.633439 1.63498,1.012744 3.02658,1.976134 3.09248,2.140866 0.0657,0.164793 -0.0144,0.459756 -0.17656,0.655597 -0.23111,0.277683 -0.6167,0.324317 -1.75079,0.211757 -1.27622,-0.126733 -1.55635,-0.07549 -2.28672,0.418439 -0.58663,0.396622 -3.19824,4.062694 -8.8446,12.415426 -4.40665,6.518939 -8.33054,12.439659 -8.71956,13.157158 -1.32372,2.441111 -1.19631,3.721818 0.56345,5.66455 0.91464,1.009755 0.97766,1.688219 0.15671,1.688219 -0.24725,0 -1.90354,-1.052183 -3.68044,-2.338208 z m 64.77474,0.144281 -0.79067,-1.482402 1.28303,-4.004036 1.283,-4.004025 1.37788,2.509915 1.37783,2.509926 -1.82009,2.976512 c -1.00102,1.637098 -1.84267,2.976537 -1.87021,2.976537 -0.0276,0 -0.40592,-0.667097 -0.84077,-1.482427 z M 156.64515,84.968372 c -0.53363,-0.532195 -0.31526,-1.328805 0.54326,-1.981915 1.41166,-1.073878 1.87022,-2.054451 1.7222,-3.682695 -0.11549,-1.269097 -0.77407,-2.643256 -6.84055,-14.271292 -3.69206,-7.076855 -6.91979,-13.160281 -7.1727,-13.518696 -0.79574,-1.127682 -1.37607,-1.08211 -4.15669,0.326451 -4.31573,2.186196 -4.73218,2.968671 -3.8755,7.281756 0.48713,2.452513 0.50081,2.719952 0.15678,3.06305 -0.30096,0.300182 -0.44731,0.317621 -0.72648,0.08646 -0.32414,-0.268329 -3.95493,-8.995524 -3.95493,-9.50639 0,-0.125964 3.18372,-1.830062 7.07497,-3.786781 3.89121,-1.956707 9.58983,-4.945695 12.66355,-6.642183 3.07376,-1.696512 5.72382,-3.087451 5.88906,-3.091 0.29435,-0.0061 4.7857,6.629988 4.98314,7.362914 0.0552,0.204781 -0.0608,0.505684 -0.25762,0.66861 -0.3003,0.248574 -0.64851,0.02744 -2.16283,-1.372865 -1.98214,-1.833001 -3.05888,-2.307525 -4.37906,-1.929915 -1.11852,0.31994 -5.79943,2.813134 -6.16831,3.285426 -0.18623,0.238367 -0.25634,0.683428 -0.17387,1.103464 0.11512,0.586342 3.86032,7.954403 9.16684,18.033793 0.61812,1.174073 1.83838,3.492548 2.71164,5.152122 1.8313,3.480281 2.44525,4.285488 3.78896,4.969159 0.8666,0.44095 1.22134,0.477292 3.28041,0.335829 2.20226,-0.151318 2.31597,-0.135793 2.46629,0.336707 0.23799,0.74778 -0.2514,1.159939 -2.7354,2.303865 -3.31915,1.528513 -5.76468,2.788403 -8.46445,4.360769 -2.4968,1.45417 -2.90278,1.587939 -3.37868,1.113269 z M 339.8329,83.685896 c -1.43878,-0.74767 -4.04923,-2.141854 -5.80097,-3.098171 -1.75178,-0.956317 -3.22184,-1.738756 -3.26676,-1.738756 -0.45423,0 -5.55692,-2.654244 -5.55416,-2.889097 0.01,-0.699415 0.42947,-0.922122 1.85423,-0.98 2.20962,-0.08976 2.80841,-0.79033 5.91378,-6.918159 1.38953,-2.742109 2.92348,-5.732793 3.40861,-6.645963 2.45252,-4.615878 7.63313,-15.132293 7.75574,-15.743829 0.21556,-1.074489 -0.30918,-2.278318 -1.61313,-3.701281 -1.31363,-1.433549 -1.42409,-2.093414 -0.37059,-2.214512 0.46829,-0.05378 1.46195,0.386866 3.44625,1.528439 1.53352,0.882244 4.01896,2.154951 5.52312,2.828256 2.75765,1.234378 3.20883,1.647658 2.59893,2.38061 -0.21963,0.263756 -0.55713,0.314086 -1.33089,0.198366 -1.30958,-0.19583 -2.1898,0.159841 -2.84551,1.149902 -0.6448,0.973634 -13.40934,26.037988 -13.95141,27.394975 -0.86639,2.168732 -0.36789,3.089586 2.36353,4.36622 4.79245,2.239878 8.08251,2.05828 12.05236,-0.66528 0.6415,-0.440122 1.25507,-0.800208 1.36345,-0.800208 0.93748,0 -0.29167,2.421769 -2.17874,4.292573 -1.72487,1.710025 -3.2039,2.43011 -5.2061,2.534635 -1.48564,0.07756 -1.64756,0.02781 -4.16174,-1.27872 z M 176.73207,74.477555 c -0.0717,-0.186586 0.19631,-0.789183 0.59576,-1.339159 1.41141,-1.943268 1.33507,-1.08261 1.98978,-22.430512 0.39265,-12.803108 0.69933,-19.977158 0.8623,-20.173017 0.139,-0.167201 0.34179,-0.249149 0.45044,-0.182154 0.10854,0.06694 3.8101,4.842142 8.22542,10.611501 13.84593,18.091914 16.42624,21.390657 17.00305,21.737279 0.30837,0.185306 1.20159,0.398793 1.9849,0.474379 1.13493,0.109512 1.44134,0.226829 1.50864,0.57767 0.0464,0.242159 -0.011,0.534439 -0.12531,0.649501 -0.11549,0.115121 -1.87918,0.687122 -3.91955,1.271231 -2.04038,0.584098 -4.55115,1.398232 -5.57951,1.809195 -2.82715,1.129854 -3.13665,1.197513 -3.39248,0.741573 -0.25476,-0.453963 0.14165,-1.355609 0.89493,-2.035475 1.46526,-1.322549 1.08054,-3.459549 -1.19793,-6.65433 -2.08813,-2.927841 -3.23279,-4.168353 -3.84253,-4.164304 -0.28317,0.0012 -2.59089,0.669988 -5.12827,1.484671 -5.57415,1.789743 -5.5359,1.756877 -5.68576,4.883268 -0.12325,2.570805 0.28174,5.780951 0.8541,6.770511 0.57845,1.000013 1.79171,1.562196 3.38084,1.566574 1.87449,0.0049 2.37812,0.184098 2.37812,0.844902 0,0.586061 -0.65142,0.844963 -4.73143,1.8805 -0.83652,0.212318 -2.40895,0.752659 -3.49427,1.200756 -2.15238,0.888623 -2.83125,0.995098 -3.03119,0.475488 z m 9.49105,-20.430256 c 2.27442,-0.726098 4.19155,-1.410915 4.26026,-1.521806 0.265,-0.42767 -0.425,-1.472768 -4.15274,-6.289682 -2.27278,-2.936927 -4.01653,-4.980939 -4.24918,-4.980939 -0.35412,0 -0.41063,0.666451 -0.55145,6.504207 -0.14149,5.866134 -0.0473,7.608403 0.41091,7.608403 0.0808,0 2.00777,-0.594085 4.2822,-1.320183 z M 310.3443,71.233201 c -5.60082,-1.371464 -9.56565,-5.186464 -10.9426,-10.529012 -2.10771,-8.177647 2.27804,-20.312244 9.39654,-25.998618 5.03527,-4.022286 11.46304,-4.589393 17.30638,-1.52691 3.55073,1.860929 5.93565,5.034121 7.22882,9.61793 0.5111,1.811549 0.37962,7.331488 -0.23348,9.800513 -2.37751,9.575646 -8.43096,17.085585 -15.13644,18.778426 -1.94504,0.491037 -5.2878,0.428598 -7.61927,-0.142243 z m 6.94943,-2.58039 c 2.76486,-1.277061 5.11641,-4.003513 7.19362,-8.340427 2.44267,-5.100146 3.66122,-9.949439 3.6563,-14.550964 -0.005,-5.25756 -1.49132,-8.885564 -4.46122,-10.893864 -3.35084,-2.265909 -7.4475,-1.994378 -10.76052,0.713251 -2.25306,1.841359 -4.79045,6.161297 -6.35055,10.811991 -2.37029,7.065928 -2.60827,14.588501 -0.58661,18.54094 2.06123,4.029634 7.07026,5.676914 11.30898,3.719073 z m -37.32267,-5.219403 c -1.6635,-0.375463 -4.2319,-0.852475 -5.70755,-1.060024 -3.81548,-0.53661 -3.79666,-0.530804 -3.70926,-1.143915 0.05,-0.350048 0.41845,-0.689781 1.1047,-1.018414 1.96531,-0.941085 2.914,-2.233976 3.55388,-4.843573 0.14425,-0.587038 1.29483,-6.937708 2.5576,-14.11261 1.53242,-8.707293 2.25781,-13.389481 2.18141,-14.080405 -0.14928,-1.345242 -0.74935,-2.119839 -2.33008,-3.005577 -0.98676,-0.552916 -1.28509,-0.849774 -1.28509,-1.278673 0,-1.037641 0.55223,-1.099331 3.71994,-0.415497 1.61636,0.348943 4.8116,0.903331 7.10058,1.232005 4.94678,0.710266 7.49569,1.448063 9.27477,2.684624 2.55629,1.776789 3.76664,4.03429 3.9777,7.41892 0.32269,5.175627 -2.14091,10.173323 -5.97818,12.127408 -2.55415,1.300683 -6.69155,1.148561 -9.11735,-0.335183 -0.5902,-0.360976 -0.77291,-0.638122 -0.77291,-1.172378 0,-0.892293 0.3894,-1.032805 1.53686,-0.554622 1.27828,0.532683 3.43955,0.483877 4.59442,-0.103659 4.80182,-2.443268 5.71695,-12.975249 1.41197,-16.250156 -1.61789,-1.230767 -4.26838,-1.714453 -5.33012,-0.972695 -0.27983,0.195454 -0.67882,0.80918 -0.88666,1.363818 -0.6067,1.61898 -5.18678,27.80318 -5.21729,29.827131 -0.0331,2.189121 0.41768,3.090085 2.11648,4.23128 0.91945,0.61761 1.17983,0.93172 1.17983,1.42311 0,0.854488 -0.34831,0.857914 -3.97565,0.03902 z m -64.96482,-0.376743 c -0.31018,-0.806172 -0.1235,-1.220927 0.74744,-1.661842 2.47077,-1.250695 3.3195,-2.553219 3.0639,-4.702 -0.28433,-2.390012 -6.10861,-29.17865 -6.46033,-29.714012 -0.27099,-0.412471 -0.5794,-0.546871 -1.2464,-0.543093 -1.39737,0.0086 -5.74049,1.073862 -6.4376,1.580039 -1.09557,0.795499 -1.64078,2.217095 -1.82788,4.765992 -0.0931,1.268458 -0.26718,2.493061 -0.38681,2.721355 -0.24449,0.466587 -0.80312,0.549077 -1.04751,0.154712 -0.0887,-0.143277 -0.41692,-2.464685 -0.72926,-5.158822 -0.49703,-4.286748 -0.52426,-4.930496 -0.21821,-5.155357 0.19239,-0.14122 1.12958,-0.394316 2.08268,-0.562262 0.95311,-0.167893 1.89345,-0.33941 2.08965,-0.381045 0.19617,-0.0417 2.06898,-0.409382 4.16173,-0.817188 4.57529,-0.891561 8.67676,-1.787431 14.80786,-3.234402 2.52,-0.594739 4.73411,-1.023059 4.92028,-0.951813 0.38023,0.145502 2.74524,7.31557 2.74524,8.322781 0,0.521428 -0.0955,0.627319 -0.51024,0.565723 -0.34918,-0.05191 -0.89336,-0.705624 -1.72414,-2.07122 -1.27636,-2.098068 -2.22387,-2.866906 -3.53303,-2.866906 -0.71064,0 -4.78969,0.819591 -6.06563,1.218746 -0.84715,0.265021 -1.24668,0.808409 -1.24668,1.695603 0,1.290201 5.93482,28.393181 6.4342,29.383523 1.0011,1.985329 1.76103,2.475427 4.47624,2.886878 1.72156,0.260877 1.81636,0.307414 1.88781,0.926817 0.097,0.841061 -0.15418,0.934025 -4.63205,1.712671 -1.94089,0.337475 -4.99704,0.984134 -6.7915,1.436976 -3.65189,0.921572 -4.35118,0.990304 -4.55976,0.448158 z"
       id="path129" />
  </g>
</svg>
