<?xml version="1.0" encoding="UTF-8" standalone="no"?>
<!-- Created with Inkscape (http://www.inkscape.org/) -->

<svg
   width="60mm"
   height="40mm"
   viewBox="0 0 60 40"
   version="1.1"
   id="svg5"
   xml:space="preserve"
   inkscape:version="1.2 (1:1.2.1+202207142221+cd75a1ee6d)"
   sodipodi:docname="l3-figura01.svg"
   inkscape:export-filename="l3-figura01.png"
   inkscape:export-xdpi="150"
   inkscape:export-ydpi="150"
   xmlns:inkscape="http://www.inkscape.org/namespaces/inkscape"
   xmlns:sodipodi="http://sodipodi.sourceforge.net/DTD/sodipodi-0.dtd"
   xmlns:xlink="http://www.w3.org/1999/xlink"
   xmlns="http://www.w3.org/2000/svg"
   xmlns:svg="http://www.w3.org/2000/svg"><sodipodi:namedview
     id="namedview7"
     pagecolor="#505050"
     bordercolor="#eeeeee"
     borderopacity="1"
     inkscape:showpageshadow="0"
     inkscape:pageopacity="0"
     inkscape:pagecheckerboard="0"
     inkscape:deskcolor="#505050"
     inkscape:document-units="mm"
     showgrid="false"
     inkscape:zoom="2.8284272"
     inkscape:cx="90.686442"
     inkscape:cy="108.01056"
     inkscape:window-width="1920"
     inkscape:window-height="1016"
     inkscape:window-x="1920"
     inkscape:window-y="27"
     inkscape:window-maximized="1"
     inkscape:current-layer="layer1" /><defs
     id="defs2"><linearGradient
       inkscape:collect="always"
       id="linearGradient13233"><stop
         style="stop-color:#fafac7;stop-opacity:1;"
         offset="0"
         id="stop13229" /><stop
         style="stop-color:#6d6d6d;stop-opacity:0.52302754;"
         offset="1"
         id="stop13231" /></linearGradient><radialGradient
       inkscape:collect="always"
       xlink:href="#linearGradient13233"
       id="radialGradient13235"
       cx="18.703131"
       cy="21.891075"
       fx="18.703131"
       fy="21.891075"
       r="23.118856"
       gradientTransform="matrix(1.4893234,-4.3451624e-8,0,0.67287156,-10.068453,-5.1368641)"
       gradientUnits="userSpaceOnUse" /></defs><g
     inkscape:label="Layer 1"
     inkscape:groupmode="layer"
     id="layer1"><g
       id="g10164"
       transform="translate(0.40176645,0.03222275)"><ellipse
         style="fill:url(#radialGradient13235);fill-opacity:1;stroke:#4d4d4d;stroke-width:0.26;stroke-linecap:round;stroke-dasharray:none;paint-order:stroke fill markers"
         id="path354"
         cx="29.589718"
         cy="19.967821"
         rx="29.578257"
         ry="19.556906" /><ellipse
         style="fill:#97978b;fill-opacity:1;stroke:none;stroke-width:0.0838227;stroke-linecap:round;stroke-dasharray:none;paint-order:stroke fill markers"
         id="ellipse13417"
         cx="29.589718"
         cy="19.967821"
         rx="29.578257"
         ry="19.556906" /><ellipse
         style="opacity:0.75;fill:none;stroke:#666666;stroke-width:0.212781;stroke-linecap:round;stroke-dasharray:none;paint-order:stroke fill markers"
         id="path663"
         cx="29.589718"
         cy="19.967821"
         ry="19.556906"
         rx="7.4632297" /><path
         style="fill:none;stroke:#000000;stroke-width:0.0838227;stroke-linecap:butt;stroke-linejoin:miter;stroke-dasharray:none;stroke-opacity:1"
         d="m 29.589718,39.524727 2e-6,-19.556908"
         id="path13415"
         sodipodi:nodetypes="cc"
         inkscape:label="path13415" /><path
         style="fill:none;stroke:#000000;stroke-width:0.0838227;stroke-linecap:butt;stroke-linejoin:miter;stroke-dasharray:none;stroke-opacity:1"
         d="M 0.01146111,19.967821 H 59.167973"
         id="path793" /><path
         style="fill:none;stroke:#000000;stroke-width:0.0838227;stroke-linecap:butt;stroke-linejoin:miter;stroke-dasharray:none;stroke-opacity:1"
         d="m 29.589719,19.967821 -2e-6,-19.55690604"
         id="path795"
         sodipodi:nodetypes="cc" /><path
         style="fill:none;stroke:#000000;stroke-width:0.0838227;stroke-linecap:butt;stroke-linejoin:miter;stroke-dasharray:none;stroke-opacity:1"
         d="M 22.655972,27.202759 36.523466,12.732883"
         id="path797" /><path
         id="ellipse19789"
         style="opacity:0.5;fill:#b3b3b3;fill-opacity:1;stroke:#4d4d4d;stroke-width:0.341739;stroke-linecap:round;stroke-dasharray:none;paint-order:stroke fill markers"
         d="M 29.589925,12.52585 A 29.578257,7.4418502 0 0 0 0.01136882,19.967773 29.578257,7.4418502 0 0 0 22.660116,27.19834 L 36.522835,12.73359 a 29.578257,7.4418502 0 0 0 -6.93291,-0.20774 z" /><path
         id="ellipse9635"
         style="opacity:0.75;fill:#b3b3b3;stroke:#666666;stroke-width:0.212781;stroke-linecap:round;stroke-dasharray:none;paint-order:stroke fill markers"
         d="m 29.589408,0.41082764 c -4.121703,1.7242e-4 -7.463009,8.75577766 -7.46311,19.55642936 -9e-6,2.53421 0.186095,4.95341 0.520898,7.175789 l 6.907589,-7.139099 0.03462,-0.03566 v -5.17e-4 z" /><path
         id="ellipse9741"
         style="opacity:0.6;fill:#cccc99;fill-opacity:1;stroke:#4d4d4d;stroke-width:0.26;stroke-linecap:round;stroke-dasharray:none;paint-order:stroke fill markers"
         d="M 29.589408,0.41082764 A 29.578257,19.556906 0 0 0 0.01136882,19.967773 c -5.54e-6,0.377231 0.01774011,0.751491 0.04960937,1.123446 a 29.578257,19.556906 0 0 0 0.0031006,0.03359 C 0.44609255,25.45282 2.9565374,29.40252 6.9137899,32.523596 a 29.578257,19.556906 0 0 0 0.041858,0.03307 c 0.3475793,0.272919 0.7060978,0.539568 1.0753865,0.799435 a 29.578257,19.556906 0 0 0 0.072864,0.05168 c 0.3788707,0.264699 0.7689209,0.522181 1.1694377,0.772563 a 29.578257,19.556906 0 0 0 0.050643,0.03152 c 0.3953311,0.245987 0.8011179,0.484269 1.2164629,0.715719 a 29.578257,19.556906 0 0 0 0.06666,0.03721 c 4.718643,2.61384 10.688531,4.271939 17.229957,4.524788 a 29.578257,19.556906 0 0 0 0.05581,0.0026 c 0.561664,0.02101 1.126921,0.03255 1.696537,0.03256 16.12942,1.07e-4 29.242155,-8.536655 29.570805,-19.149219 -0.580174,3.981396 -13.58912,7.164392 -29.555302,7.164421 -2.3334,-0.0014 -4.677043,-0.197405 -6.944279,-0.336414 a 7.4632297,19.556906 0 0 1 -0.001,-0.0046 l 6.895186,-7.19491 -6.904488,7.135998 a 7.4632297,19.556906 0 0 1 -0.03307,-0.210839 c -0.01417,-0.09734 -0.02774,-0.195451 -0.04134,-0.293523 A 7.4632297,19.556906 0 0 1 22.43584,25.532808 c -0.0026,-0.0231 -0.0062,-0.04559 -0.0088,-0.06873 a 7.4632297,19.556906 0 0 1 -0.118339,-1.21543 c -0.0072,-0.0842 -0.01386,-0.168612 -0.02067,-0.253214 a 7.4632297,19.556906 0 0 1 -0.08578,-1.244369 7.4632297,19.556906 0 0 1 -0.05116,-1.251086 c -0.0028,-0.09232 -0.0055,-0.184825 -0.0078,-0.277503 a 7.4632297,19.556906 0 0 1 -0.01705,-1.254704 7.4632297,19.556906 0 0 1 7.46311,-19.55694536 z" /><path
         id="path665"
         style="opacity:0.5;fill:#b3b3b3;fill-opacity:1;stroke:#4d4d4d;stroke-width:0.341739;stroke-linecap:round;stroke-dasharray:none;paint-order:stroke fill markers"
         d="m 36.522835,12.73359 -6.730338,7.022827 H 59.151428 C 58.554454,16.455185 49.365301,13.512673 36.522835,12.73359 Z" /><path
         id="ellipse5108"
         style="opacity:0.75;fill:#cccccc;fill-opacity:1;stroke:#4d4d4d;stroke-width:0.26;stroke-linecap:round;stroke-dasharray:none;paint-order:stroke fill markers"
         d="M 29.695862,0.41186117 V 19.797241 H 59.160213 A 29.578257,19.556906 0 0 0 29.695862,0.41186117 Z" /><text
         xml:space="preserve"
         style="font-style:normal;font-variant:normal;font-weight:normal;font-stretch:normal;font-size:2.82222px;line-height:1.25;font-family:sans-serif;-inkscape-font-specification:'sans-serif, Normal';font-variant-ligatures:normal;font-variant-caps:normal;font-variant-numeric:normal;font-variant-east-asian:normal;letter-spacing:0px;word-spacing:0px;stroke-width:0.264583"
         x="30.119989"
         y="8.7256088"
         id="text13650"><tspan
           sodipodi:role="line"
           id="tspan13648"
           style="font-style:normal;font-variant:normal;font-weight:normal;font-stretch:normal;font-size:2.82222px;font-family:sans-serif;-inkscape-font-specification:'sans-serif, Normal';font-variant-ligatures:normal;font-variant-caps:normal;font-variant-numeric:normal;font-variant-east-asian:normal;stroke-width:0.264583"
           x="30.119989"
           y="8.7256088">a</tspan></text><text
         xml:space="preserve"
         style="font-style:normal;font-variant:normal;font-weight:normal;font-stretch:normal;font-size:2.82222px;line-height:1.25;font-family:sans-serif;-inkscape-font-specification:'sans-serif, Normal';font-variant-ligatures:normal;font-variant-caps:normal;font-variant-numeric:normal;font-variant-east-asian:normal;letter-spacing:0px;word-spacing:0px;stroke-width:0.264583"
         x="40.850388"
         y="19.268051"
         id="text13654"><tspan
           sodipodi:role="line"
           id="tspan13652"
           style="font-style:normal;font-variant:normal;font-weight:normal;font-stretch:normal;font-size:2.82222px;font-family:sans-serif;-inkscape-font-specification:'sans-serif, Normal';font-variant-ligatures:normal;font-variant-caps:normal;font-variant-numeric:normal;font-variant-east-asian:normal;stroke-width:0.264583"
           x="40.850388"
           y="19.268051">b</tspan></text><text
         xml:space="preserve"
         style="font-style:normal;font-variant:normal;font-weight:normal;font-stretch:normal;font-size:2.82222px;line-height:1.25;font-family:sans-serif;-inkscape-font-specification:'sans-serif, Normal';font-variant-ligatures:normal;font-variant-caps:normal;font-variant-numeric:normal;font-variant-east-asian:normal;letter-spacing:0px;word-spacing:0px;stroke:#ffffff;stroke-width:0.365;stroke-linecap:round;stroke-dasharray:none;stroke-opacity:1"
         x="2.5694597"
         y="4.5419388"
         id="text13729"><tspan
           sodipodi:role="line"
           id="tspan13727"
           style="font-style:normal;font-variant:normal;font-weight:normal;font-stretch:normal;font-size:2.82222px;font-family:sans-serif;-inkscape-font-specification:'sans-serif, Normal';font-variant-ligatures:normal;font-variant-caps:normal;font-variant-numeric:normal;font-variant-east-asian:normal;stroke:#ffffff;stroke-width:0.365;stroke-linecap:round;stroke-dasharray:none;stroke-opacity:1"
           x="2.5694597"
           y="4.5419388">Eje de rotación</tspan></text><text
         xml:space="preserve"
         style="font-style:normal;font-variant:normal;font-weight:normal;font-stretch:normal;font-size:2.82222px;line-height:1.25;font-family:sans-serif;-inkscape-font-specification:'sans-serif, Normal';font-variant-ligatures:normal;font-variant-caps:normal;font-variant-numeric:normal;font-variant-east-asian:normal;letter-spacing:0px;word-spacing:0px;stroke-width:0.264583"
         x="2.5694597"
         y="4.5419388"
         id="text13659"><tspan
           sodipodi:role="line"
           id="tspan13657"
           style="font-style:normal;font-variant:normal;font-weight:normal;font-stretch:normal;font-size:2.82222px;font-family:sans-serif;-inkscape-font-specification:'sans-serif, Normal';font-variant-ligatures:normal;font-variant-caps:normal;font-variant-numeric:normal;font-variant-east-asian:normal;stroke-width:0.264583"
           x="2.5694597"
           y="4.5419388">Eje de rotación</tspan></text><path
         id="path5096"
         style="opacity:0.5;fill:#ececec;fill-opacity:1;stroke:#4d4d4d;stroke-width:0.341739;stroke-linecap:round;stroke-dasharray:none;paint-order:stroke fill markers"
         d="m 29.628682,19.927466 -6.972701,7.275525 c 2.268679,0.139025 4.613936,0.335545 6.94893,0.33693 16.335633,-3e-5 29.5782,-3.3319 29.57804,-7.441923 -1e-5,-0.05699 -0.0026,-0.113726 -0.0078,-0.170532 z" /><path
         style="fill:none;stroke:#66cc00;stroke-width:0.341201px;stroke-linecap:butt;stroke-linejoin:miter;stroke-opacity:1"
         d="m 22.655972,27.202762 6.933748,-7.234943 29.578253,2e-6"
         id="path801" /><path
         style="fill:none;stroke:#cc0000;stroke-width:0.341201px;stroke-linecap:butt;stroke-linejoin:miter;stroke-opacity:1"
         d="m 29.589717,0.41091496 3e-6,19.55690604"
         id="path799" /><circle
         style="fill:#1a1a1a;fill-opacity:1;stroke:none;stroke-width:0.0838225;stroke-linecap:round;stroke-dasharray:none;stroke-opacity:1;paint-order:stroke fill markers"
         id="path13486"
         cx="29.589724"
         cy="19.967819"
         r="0.49368507" /><g
         id="path13731"><path
           style="color:#000000;fill:#666666"
           d="m 13.193359,5.0019531 -0.07226,0.2539063 15.205078,4.3496094 0.07227,-0.2558594 z"
           id="path19760" /><g
           id="g19750"><g
             id="path19752"><path
               style="color:#000000;fill:#666666;fill-rule:evenodd;stroke-width:0.132291pt"
               d="m 29.125014,9.6960175 c -0.417953,0.018057 -0.999475,0.1269282 -1.326614,0.3085555 0,0 0.145512,-0.5087664 0.436273,-0.5632018 -0.218004,-0.1999476 -0.07249,-0.7087136 -0.07249,-0.7087136 0.181627,0.3271391 0.617637,0.7270342 0.962833,0.9633599 z"
               id="path19756" /><path
               style="color:#000000;fill:#666666;fill-rule:evenodd"
               d="m 28.136719,8.5039063 -0.05859,0.2050781 c 0,0 -0.03904,0.1336426 -0.04883,0.296875 -0.008,0.1339835 0.03887,0.2835819 0.121094,0.4101562 -0.137721,0.063618 -0.256004,0.1666642 -0.320313,0.2851563 -0.078,0.1437231 -0.117187,0.2792968 -0.117187,0.2792969 l -0.05859,0.2050782 0.1875,-0.103516 c 0.301436,-0.1673569 0.880905,-0.2812785 1.287109,-0.2988279 l 0.263672,-0.00977 -0.216797,-0.1503906 C 28.840289,9.3933643 28.407591,8.9908898 28.240234,8.6894531 Z m 0.08594,0.4082031 c 0.189762,0.2670251 0.456538,0.5289471 0.730469,0.734375 -0.341385,0.029516 -0.707371,0.1098608 -1.009766,0.2363281 0.01632,-0.040797 0.014,-0.047878 0.04102,-0.097656 C 28.051819,9.6608876 28.150853,9.5459057 28.25,9.5273438 l 0.173828,-0.03125 -0.128906,-0.1191407 c -0.07434,-0.06818 -0.09831,-0.2182378 -0.08984,-0.359375 0.0034,-0.057381 0.0097,-0.061863 0.01758,-0.1054687 z"
               id="path19758" /></g></g></g></g></g></svg>
